<svg width="32" height="32" viewBox="0 0 32 32" fill="none" xmlns="http://www.w3.org/2000/svg">
<path d="M30.6087 14.6084H1.39128C0.622891 14.6084 0 15.2313 0 15.9997C0 16.7681 0.622891 17.391 1.39128 17.391H30.6087C31.377 17.391 31.9999 16.7681 31.9999 15.9997C32 15.2313 31.377 14.6084 30.6087 14.6084Z" fill="#F5F5F5"/>
<path d="M1.39128 7.6517H30.6087C31.377 7.6517 31.9999 7.02881 31.9999 6.26042C31.9999 5.49203 31.377 4.86914 30.6087 4.86914H1.39128C0.622891 4.86914 0 5.49203 0 6.26042C0 7.02881 0.622891 7.6517 1.39128 7.6517Z" fill="#F5F5F5"/>
<path d="M30.6087 24.3477H1.39128C0.622891 24.3477 0 24.9706 0 25.739C0 26.5074 0.622891 27.1303 1.39128 27.1303H30.6087C31.377 27.1303 31.9999 26.5074 31.9999 25.739C32 24.9706 31.377 24.3477 30.6087 24.3477Z" fill="#F5F5F5"/>
</svg>
