<svg width="30" height="30" viewBox="0 0 30 30" fill="none" xmlns="http://www.w3.org/2000/svg">
<path d="M22.4998 7.50002C22.2654 7.26568 21.9475 7.13403 21.616 7.13403C21.2846 7.13403 20.9667 7.26568 20.7323 7.50002L14.9998 13.2325L9.26727 7.50002C9.03286 7.26568 8.71498 7.13403 8.38352 7.13403C8.05207 7.13403 7.73418 7.26568 7.49977 7.50002C7.26543 7.73443 7.13379 8.05231 7.13379 8.38377C7.13379 8.71522 7.26543 9.03311 7.49977 9.26752L13.2323 15L7.49977 20.7325C7.26543 20.9669 7.13379 21.2848 7.13379 21.6163C7.13379 21.9477 7.26543 22.2656 7.49977 22.5C7.73418 22.7344 8.05207 22.866 8.38352 22.866C8.71498 22.866 9.03286 22.7344 9.26727 22.5L14.9998 16.7675L20.7323 22.5C20.9667 22.7344 21.2846 22.866 21.616 22.866C21.9475 22.866 22.2654 22.7344 22.4998 22.5C22.7341 22.2656 22.8658 21.9477 22.8658 21.6163C22.8658 21.2848 22.7341 20.9669 22.4998 20.7325L16.7673 15L22.4998 9.26752C22.7341 9.03311 22.8658 8.71522 22.8658 8.38377C22.8658 8.05231 22.7341 7.73443 22.4998 7.50002Z" fill="#0A0A0A"/>
</svg>
