<svg width="180" height="38" viewBox="0 0 180 38" fill="none" xmlns="http://www.w3.org/2000/svg">
<path fill-rule="evenodd" clip-rule="evenodd" d="M3.16638 3.06141C2.06519 9.27441 0.114759 19.9511 0.0171309 20.3008C-0.0754312 20.6323 0.132493 20.662 2.53794 20.662H5.15949L6.27725 14.573C6.89225 11.2241 7.4521 8.48408 7.52167 8.48408C7.59124 8.48408 8.16239 11.2241 8.79084 14.573L9.93355 20.662L11.0277 20.6607L12.1217 20.6595L14.7854 15.8618C16.2502 13.2231 17.8118 10.414 18.2554 9.6193C18.8507 8.5526 19.0331 8.33649 18.9524 8.79368C18.8924 9.13425 18.4493 11.6885 17.9677 14.4698C17.4862 17.2511 17.0411 19.7821 16.9786 20.0944L16.865 20.662H19.901C21.5706 20.662 22.9369 20.6153 22.9369 20.5584C22.9369 20.5014 23.3274 18.2955 23.8048 15.6562C25.4364 6.63736 26.4445 0.817987 26.4445 0.419625C26.4445 0.0412843 26.2718 0.0214647 22.9708 0.0214647H19.4972L16.3079 5.59441C14.5537 8.65952 13.0653 11.1673 13.0004 11.1673C12.9061 11.1673 11.8035 5.81732 10.8946 0.950287L10.7405 0.124668L7.22372 0.0685337L3.70675 0.0123839L3.16638 3.06141ZM33.3623 0.215073C30.8376 0.868964 29.5783 2.70639 28.8758 6.76121C28.7018 7.76558 28.2523 10.3056 27.8767 12.4058C26.9394 17.6491 27.1265 18.9042 29.0169 20.0506C29.841 20.5505 29.9398 20.5598 35.0868 20.6254C41.1149 20.7024 42.4665 20.5412 44.0153 19.561C45.3464 18.7185 46.1467 17.3405 46.5756 15.1524C47.3526 11.19 48.2704 5.88792 48.3856 4.69613C48.6005 2.47377 47.572 0.808694 45.6389 0.249336C44.7626 -0.00433579 34.3214 -0.0332322 33.3623 0.215073ZM51.1106 0.279471C51.0091 0.653683 50.608 3.22653 50.608 3.50249C50.608 3.66699 51.4995 3.73676 53.6039 3.73676H56.5996L56.227 5.95562C56.0218 7.17609 55.3753 10.8158 54.7901 14.044C54.2047 17.2722 53.7259 20.0842 53.7259 20.2929C53.7259 20.6475 53.9258 20.6688 56.7799 20.6155L59.8338 20.5588L60.0681 19.4235C60.1969 18.7992 60.9029 15.0143 61.6367 11.0125L62.9712 3.73676H65.9447C68.871 3.73676 68.9195 3.72933 69.0103 3.27234C69.3122 1.75052 69.5102 0.582059 69.5102 0.320956C69.5102 0.0635689 68.2237 0.0214647 60.3454 0.0214647C53.1805 0.0214647 51.1652 0.0778133 51.1106 0.279471ZM74.4156 0.414672C73.1924 0.862158 72.007 1.99759 71.3558 3.34542C70.9208 4.24555 69.8526 9.49114 69.0236 14.797C68.5518 17.8171 68.9659 19.0916 70.7466 20.1001C71.5325 20.5454 71.7311 20.5588 77.4997 20.5588C84.148 20.5588 84.7324 20.4591 86.274 19.0613C87.5247 17.9273 87.9092 16.7551 88.9983 10.7545C90.2928 3.62241 90.2881 2.42443 88.9613 1.11211C87.962 0.123843 87.2191 0.021056 81.1289 0.0282801C76.1351 0.0340595 75.3289 0.0805022 74.4156 0.414672ZM97.6685 0.213423C94.7893 0.951115 93.0891 3.74006 93.0891 7.72533C93.0891 10.5946 94.1044 11.446 98.689 12.4219C102.756 13.2873 103.771 13.6134 103.917 14.1006C104.137 14.8325 103.816 15.8701 103.201 16.4183L102.608 16.9467H97.0689C94.0225 16.9467 91.5296 17.0162 91.5286 17.1015C91.5257 17.4121 91.1227 19.9501 91.0183 20.3146C90.9158 20.6731 91.2262 20.6865 98.0896 20.6201C104.804 20.5551 105.329 20.5231 106.211 20.1278C107.477 19.5598 108.37 18.7727 108.961 17.7052C109.612 16.5283 110.102 13.9402 110.008 12.1752C109.943 10.9545 109.856 10.6829 109.355 10.1233C108.317 8.96645 107.624 8.70493 103.125 7.77343C100.228 7.17361 99.6464 6.84315 99.5575 5.74487C99.5108 5.16508 99.6223 4.86043 100.079 4.32047L100.66 3.63355L105.915 3.64801L111.17 3.66246L111.405 2.11316C111.535 1.26112 111.686 0.441918 111.74 0.292688C111.82 0.0716277 110.583 0.0253835 105.046 0.0425151C101.31 0.0542802 97.99 0.131068 97.6685 0.213423ZM115.711 1.10509C115.599 1.70119 114.932 5.48604 114.229 9.5161C113.526 13.5462 112.791 17.7027 112.595 18.7527L112.239 20.662H115.393H118.548L118.98 18.0303C119.218 16.5828 119.563 14.6694 119.746 13.7782L120.078 12.1579L123.286 12.1878C125.05 12.2043 126.525 12.2512 126.563 12.2916C126.652 12.3853 125.285 20.2147 125.136 20.4711C125.069 20.585 126.318 20.662 128.236 20.662H131.447L131.556 20.0944C131.616 19.7821 132.415 15.2777 133.331 10.0843C134.248 4.89118 135.048 0.502391 135.11 0.331694C135.207 0.0633676 134.786 0.0214647 131.986 0.0214647C129.032 0.0214647 128.75 0.0530455 128.755 0.382674C128.757 0.581236 128.476 2.39244 128.13 4.40758L127.5 8.07126H124.158H120.816L121.271 5.5428C121.521 4.15225 121.846 2.34084 121.993 1.5179L122.259 0.0214647H119.088H115.916L115.711 1.10509ZM141.991 0.297025C140.253 0.804575 138.915 2.07664 138.185 3.91632C138.033 4.299 137.5 6.85326 137 9.59246C135.588 17.3351 135.709 18.8867 137.811 20.0337C138.762 20.5526 138.837 20.5596 144.069 20.625C147.247 20.6647 149.81 20.6038 150.479 20.4727C152.774 20.0236 154.298 18.7375 155.046 16.6206C155.491 15.36 157.395 4.96425 157.395 3.79372C157.395 2.55323 156.667 1.24421 155.642 0.640681C154.765 0.124874 154.762 0.124672 148.821 0.0815334C144.546 0.0503662 142.629 0.110847 141.991 0.297025ZM161.78 0.887953C161.706 1.37631 161.264 3.86576 160.798 6.42002C160.333 8.97429 159.591 13.1076 159.149 15.6051C158.708 18.1026 158.311 20.2622 158.267 20.404C158.205 20.6036 158.926 20.662 161.446 20.662H164.705L165.266 17.3785C165.575 15.5724 165.882 14.0013 165.949 13.8867C166.023 13.7598 167.854 13.6508 170.648 13.6073C174.934 13.5406 175.29 13.5055 176.226 13.059C177.368 12.5145 178.039 11.8355 178.607 10.6513C179.069 9.68762 180 4.80779 180 3.35305C180 2.1045 179.414 1.11335 178.337 0.537477C177.609 0.14861 177.111 0.121159 169.74 0.062334L161.915 0L161.78 0.887953ZM37.0647 3.67917C36.113 3.82675 35.6494 4.46536 35.3168 6.0875C34.7957 8.62711 33.6546 15.1691 33.6546 15.6156C33.6546 15.8509 33.8335 16.2465 34.0519 16.4949C34.4161 16.9091 34.6357 16.9467 36.6923 16.9467C39.3835 16.9467 39.9749 16.7155 40.2608 15.552C40.6347 14.0296 42.0339 5.79276 42.0339 5.11328C42.0339 3.98465 41.5775 3.72395 39.4735 3.65151C38.4703 3.61683 37.3863 3.62922 37.0647 3.67917ZM78.6304 3.71261C77.7998 3.8994 77.33 4.25896 77.1081 4.87755C76.8356 5.63651 75.3088 14.5375 75.3059 15.3842C75.3012 16.7213 75.7467 16.9467 78.3951 16.9467C80.5383 16.9467 80.6311 16.9279 81.2083 16.3791C81.7804 15.8348 81.8406 15.6094 82.6727 10.8949C83.6507 5.35435 83.7074 4.57971 83.1717 4.06638C82.7487 3.66079 79.8602 3.43582 78.6304 3.71261ZM145.996 3.65172C145.781 3.70725 145.402 3.79909 145.153 3.85564C144.583 3.98527 144.079 5.17478 143.76 7.14244C143.631 7.9371 143.271 10.0012 142.958 11.7294C142.02 16.9242 142.03 16.9467 145.344 16.9467C147.651 16.9467 148.266 16.7865 148.71 16.0695C149.029 15.5539 149.516 13.2469 150.29 8.59244C151.082 3.8282 151.05 3.74955 148.205 3.62819C147.204 3.58546 146.21 3.5962 145.996 3.65172ZM167.835 3.71322C167.696 3.95038 166.749 9.13115 166.749 9.65108C166.749 10.0643 171.236 10.0435 171.996 9.62694C172.631 9.27935 172.715 9.09235 173.095 7.18063C173.459 5.35022 173.452 4.26805 173.075 3.93635C172.667 3.57783 168.029 3.38009 167.835 3.71322ZM54.2131 31.2336C53.3557 32.954 52.2377 35.1351 51.7285 36.0802C51.2193 37.0254 50.8029 37.844 50.8029 37.8993C50.8029 37.9546 51.3992 38 52.1282 38H53.4533L53.8795 37.0712L54.3054 36.1424H56.1473H57.989L58.1206 37.0712L58.2521 38H59.5879C60.5687 38 60.9029 37.9315 60.845 37.742C60.8017 37.6002 60.3571 35.487 59.857 33.0463C59.357 30.6055 58.9156 28.4926 58.8763 28.3506C58.8268 28.172 58.3378 28.0946 57.2883 28.099L55.772 28.1054L54.2131 31.2336ZM64.9417 28.557C64.8901 28.8123 64.5329 30.8326 64.1478 33.0463C63.7629 35.26 63.3993 37.2803 63.3401 37.5356C63.2366 37.9812 63.2834 38 64.4958 38H65.7594L66.1 36.1424L66.4406 34.2847H67.0613C67.9914 34.2847 68.2979 34.648 68.8028 36.3488L69.2623 37.8968L70.6529 37.9575C71.4177 37.9907 72.0434 37.9785 72.0434 37.9305C72.0434 37.7373 71.0512 34.9805 70.846 34.6036C70.6891 34.3157 70.687 34.1788 70.8384 34.1254C71.2913 33.9654 72.3172 33.1249 72.6625 32.6306C73.1992 31.8626 73.3364 30.1832 72.9305 29.3516C72.4053 28.276 71.7098 28.0926 68.156 28.0926C65.0779 28.0926 65.0345 28.0988 64.9417 28.557ZM75.8792 32.4789C75.4704 34.8911 75.0875 37.1201 75.0284 37.4324L74.9211 38H76.1191C76.9081 38 77.3425 37.9119 77.3912 37.742C77.4319 37.6002 77.6552 36.323 77.8871 34.9039C78.119 33.4849 78.384 32.1381 78.4758 31.9111L78.6426 31.4982L78.6514 31.9111C78.6563 32.1381 78.896 33.6011 79.184 35.1619L79.7078 38H80.5223H81.3369L83.0464 34.6876C83.9869 32.8659 84.7771 31.4029 84.8026 31.4367C84.8281 31.4706 84.6015 32.7986 84.2989 34.3879C83.9962 35.9772 83.7456 37.4402 83.7419 37.6388C83.7365 37.9455 83.9216 38 84.9684 38H86.2013L86.4313 36.71C86.5578 36.0006 86.9543 33.7714 87.3125 31.7563L87.9635 28.0926L86.1906 28.0959L84.4175 28.0992L82.8586 31.0633C82.0012 32.6935 81.2488 33.9227 81.1866 33.7949C81.1245 33.667 80.8271 32.3317 80.5258 30.8274L79.9781 28.0926L78.3004 28.0928L76.6228 28.0932L75.8792 32.4789ZM91.0479 28.557C90.9927 28.8123 90.6396 30.7861 90.263 32.9431C89.8861 35.1 89.5279 37.1201 89.4667 37.4324L89.3557 38H93.0737C96.0985 38 96.7916 37.9472 96.7916 37.7162C96.7916 37.5602 96.8464 37.1422 96.9134 36.7874L97.0352 36.1424H94.6724C92.0483 36.1424 92.1867 36.2348 92.4348 34.6459L92.5556 33.8719H94.7467H96.9378L97.0595 33.2269C97.2951 31.9792 97.3513 32.0143 95.1265 32.0143H93.0714L93.193 31.2402C93.2596 30.8146 93.3487 30.3502 93.3906 30.2082C93.4459 30.0206 94.1054 29.9502 95.8075 29.9502H98.1483L98.2675 29.3826C98.333 29.0703 98.4283 28.6523 98.4792 28.4538C98.5649 28.119 98.3003 28.0926 94.8597 28.0926C91.1699 28.0926 91.1473 28.0952 91.0479 28.557ZM101.468 28.4959C101.468 28.7176 101.118 30.8468 100.689 33.2275C100.26 35.608 99.9095 37.6601 99.9095 37.7878C99.9095 37.941 100.319 37.9988 101.116 37.9583L102.322 37.8968L102.769 35.3167C103.461 31.3189 103.332 31.4419 104.274 33.8843C104.731 35.0695 105.291 36.4804 105.517 37.0196L105.929 38H107.3C108.562 38 108.679 37.9631 108.773 37.5356C108.944 36.761 110.432 28.4366 110.432 28.2585C110.432 27.9751 108.092 28.0633 107.99 28.3506C107.939 28.4926 107.689 29.9089 107.433 31.4982C107.111 33.5018 106.921 34.2614 106.815 33.9751C106.73 33.7481 106.276 32.587 105.806 31.395C105.335 30.2031 104.86 28.9725 104.749 28.6602C104.553 28.1068 104.51 28.0926 103.008 28.0926C101.61 28.0926 101.468 28.1297 101.468 28.4959ZM113.845 28.3506C113.758 28.6253 112.186 37.6367 112.186 37.865C112.186 37.9393 112.745 38 113.428 38H114.671L114.803 37.3292C114.876 36.9601 115.234 34.9708 115.599 32.9082C115.964 30.8456 116.32 28.9182 116.389 28.6253C116.515 28.0926 116.515 28.0926 115.222 28.0926C114.36 28.0926 113.9 28.1788 113.845 28.3506ZM121.427 29.982C120.935 31.021 119.838 33.1984 118.99 34.8205C118.141 36.4429 117.448 37.8217 117.448 37.885C117.448 37.9482 118 38 118.675 38H119.903L120.333 37.0638L120.762 36.1275L122.655 36.1865L124.549 36.2456L124.712 37.1228L124.876 38H126.249C127.478 38 127.608 37.962 127.49 37.6388C127.361 37.2889 125.437 28.4527 125.437 28.2121C125.437 28.1462 124.737 28.0926 123.88 28.0926H122.323L121.427 29.982ZM67.0899 30.8274C67.0174 31.3098 66.9065 31.9245 66.8434 32.193C66.7288 32.6795 66.7345 32.6812 68.2133 32.6021C69.8504 32.5144 70.2068 32.2977 70.4007 31.2712C70.5891 30.2736 70.1351 29.9502 68.5467 29.9502H67.2216L67.0899 30.8274ZM56.001 32.3755L55.0861 34.2847H56.3718H57.6576L57.5334 33.5107C57.4652 33.0851 57.2984 32.2258 57.1626 31.6014L56.9159 30.4662L56.001 32.3755ZM123.361 30.8004C123.127 31.1075 121.735 33.9974 121.735 34.1763C121.735 34.236 122.305 34.2847 123.001 34.2847C123.698 34.2847 124.264 34.2152 124.259 34.1299C124.254 34.0447 124.099 33.1966 123.914 32.2452C123.654 30.9059 123.53 30.5798 123.361 30.8004Z" fill="url(#paint0_linear_2376_17452)"/>
<defs>
<linearGradient id="paint0_linear_2376_17452" x1="0" y1="19" x2="180" y2="19" gradientUnits="userSpaceOnUse">
<stop stop-color="white" stop-opacity="0.7"/>
<stop offset="0.3" stop-color="white"/>
<stop offset="0.7" stop-color="white"/>
<stop offset="1" stop-color="white" stop-opacity="0.7"/>
</linearGradient>
</defs>
</svg>
