<svg width="24" height="24" viewBox="0 0 24 24" fill="none" xmlns="http://www.w3.org/2000/svg">
<g clip-path="url(#clip0_2376_17482)">
<path d="M23.943 16.846L12 24.012L0.0570068 16.846L5.72101 13.448L7.19901 14.893L3.94401 16.846L12.001 21.68L20.058 16.846L16.802 14.893L18.28 13.448L23.945 16.847L23.943 16.846ZM7.05801 11.958C4.32201 9.22098 4.32201 4.77998 7.05001 2.05098C8.37201 0.728977 10.131 0.000976562 12 0.000976562C13.869 0.000976562 15.628 0.728977 16.949 2.05098C18.271 3.37298 19 5.13098 19 7.00098C19 8.87098 18.271 10.628 16.949 11.951L12 16.792L7.05801 11.958ZM8.46401 10.536L12 13.994L15.543 10.528C16.48 9.59098 17 8.33598 17 6.99998C17 5.66398 16.479 4.40898 15.535 3.46398C14.591 2.51898 13.336 1.99998 12 1.99998C10.664 1.99998 9.40801 2.51998 8.46401 3.46398C6.51501 5.41398 6.51501 8.58598 8.46401 10.535V10.536ZM12 9.99098C13.657 9.99098 15 8.64798 15 6.99098C15 5.33398 13.657 3.99098 12 3.99098C10.343 3.99098 9.00001 5.33398 9.00001 6.99098C9.00001 8.64798 10.343 9.99098 12 9.99098Z" fill="white"/>
</g>
<defs>
<clipPath id="clip0_2376_17482">
<rect width="24" height="24" fill="white"/>
</clipPath>
</defs>
</svg>
