<svg width="442" height="80" viewBox="0 0 442 80" fill="none" xmlns="http://www.w3.org/2000/svg">
<mask id="path-1-inside-1_2376_16456" fill="white">
<path fill-rule="evenodd" clip-rule="evenodd" d="M7.77523 6.44507C5.07118 19.5251 0.281798 42.0023 0.0420658 42.7385C-0.185225 43.4363 0.325343 43.4989 6.23204 43.4989H12.6694L15.4141 30.6801C16.9243 23.6297 18.2991 17.8612 18.4699 17.8612C18.6407 17.8612 20.0432 23.6297 21.5864 30.6801L24.3924 43.4989L27.0792 43.4963L29.7655 43.4937L36.3063 33.3933C39.9032 27.8382 43.738 21.9241 44.827 20.2512C46.2889 18.0055 46.7368 17.5505 46.5387 18.513C46.3913 19.23 45.3032 24.6074 44.1208 30.4628C42.9384 36.3182 41.8455 41.6465 41.6919 42.3039L41.4129 43.4989H48.868C52.9679 43.4989 56.3227 43.4007 56.3227 43.2808C56.3227 43.1608 57.2816 38.5169 58.454 32.9605C62.4605 13.9734 64.9359 1.72208 64.9359 0.883421C64.9359 0.0869144 64.5119 0.0451889 56.406 0.0451889H47.8766L40.0448 11.7777C35.7373 18.2306 32.0825 23.5102 31.9231 23.5102C31.6915 23.5102 28.9841 12.247 26.7524 2.0006L26.3739 0.262459L17.7382 0.144282L9.10213 0.0260714L7.77523 6.44507ZM81.9229 0.452785C75.7233 1.8294 72.6312 5.69765 70.9062 14.2341C70.4789 16.3486 69.375 21.696 68.4529 26.1174C66.1513 37.156 66.6106 39.7984 71.2526 42.2118C73.2763 43.2643 73.5189 43.2838 86.1577 43.422C100.96 43.584 104.279 43.2447 108.082 41.1811C111.351 39.4073 113.316 36.5063 114.369 31.8998C116.277 23.558 118.531 12.3956 118.813 9.88659C119.341 5.20793 116.816 1.70251 112.069 0.524918C109.917 -0.00912797 84.2781 -0.0699626 81.9229 0.452785ZM125.505 0.58836C125.256 1.37618 124.271 6.79268 124.271 7.37366C124.271 7.71999 126.46 7.86687 131.627 7.86687H138.984L138.069 12.5381C137.565 15.1076 135.977 22.7702 134.54 29.5663C133.103 36.3625 131.927 42.2826 131.927 42.7219C131.927 43.4685 132.418 43.5132 139.426 43.4011L146.925 43.2816L147.5 40.8917C147.817 39.5772 149.55 31.6091 151.352 23.1843L154.629 7.86687H161.931C169.117 7.86687 169.236 7.85121 169.459 6.88915C170.2 3.6853 170.686 1.22539 170.686 0.675697C170.686 0.133829 167.527 0.0451889 148.181 0.0451889C130.588 0.0451889 125.639 0.163817 125.505 0.58836ZM182.732 0.872994C179.728 1.81507 176.817 4.20545 175.218 7.04298C174.15 8.938 171.527 19.9813 169.491 31.1515C168.333 37.5097 169.35 40.1929 173.722 42.3161C175.652 43.2534 176.14 43.2816 190.305 43.2816C206.63 43.2816 208.065 43.0717 211.851 40.1291C214.922 37.7417 215.866 35.274 218.54 22.6411C221.719 7.62613 221.707 5.10407 218.449 2.34129C215.996 0.260722 214.171 0.0443283 199.217 0.0595371C186.954 0.0717042 184.974 0.169478 182.732 0.872994ZM239.83 0.449313C232.761 2.00235 228.586 7.8738 228.586 16.2638C228.586 22.3043 231.079 24.0968 242.336 26.1513C252.322 27.9733 254.816 28.6599 255.175 29.6854C255.713 31.2263 254.925 33.4107 253.415 34.5648L251.959 35.6772H238.358C230.878 35.6772 224.756 35.8237 224.754 36.0031C224.746 36.6571 223.757 42.0002 223.5 42.7676C223.249 43.5224 224.011 43.5506 240.865 43.4107C257.352 43.2738 258.642 43.2065 260.806 42.3743C263.916 41.1785 266.11 39.5216 267.56 37.2741C269.159 34.7964 270.363 29.3478 270.131 25.632C269.971 23.0622 269.759 22.4903 268.526 21.3123C265.978 18.8767 264.276 18.3262 253.229 16.3651C246.115 15.1023 244.687 14.4066 244.469 12.0945C244.354 10.8739 244.628 10.2325 245.749 9.09573L247.176 7.64959L260.079 7.68001L272.983 7.71044L273.562 4.44877C273.881 2.655 274.25 0.930355 274.384 0.616184C274.58 0.150795 271.543 0.0534388 257.945 0.0895054C248.772 0.114274 240.62 0.275932 239.83 0.449313ZM284.136 2.32651C283.859 3.58146 282.221 11.5496 280.496 20.0339C278.77 28.5182 276.965 37.2689 276.484 39.4794L275.608 43.4989H283.354H291.1L292.162 37.9585C292.747 34.9111 293.593 30.883 294.042 29.0066L294.859 25.5955L302.736 25.6585C307.068 25.6933 310.69 25.792 310.784 25.8771C311.001 26.0744 307.646 42.5573 307.278 43.0969C307.114 43.3368 310.181 43.4989 314.89 43.4989H322.775L323.044 42.3039C323.191 41.6465 325.153 32.1636 327.403 21.2302C329.653 10.2972 331.618 1.05767 331.77 0.698304C332.008 0.133406 330.974 0.0451889 324.099 0.0451889C316.845 0.0451889 316.153 0.111675 316.164 0.80563C316.171 1.22365 315.481 5.03672 314.63 9.27911L313.084 16.9921H304.877H296.67L297.788 11.6691C298.403 8.74158 299.2 4.92808 299.56 3.19558L300.214 0.0451889H292.427H284.639L284.136 2.32651ZM348.668 0.625315C344.398 1.69384 341.113 4.37186 339.321 8.24489C338.948 9.05052 337.639 14.4279 336.412 20.1947C332.944 36.495 333.24 39.7615 338.403 42.1762C340.738 43.2686 340.921 43.2834 353.768 43.4211C361.572 43.5045 367.866 43.3764 369.509 43.1004C375.144 42.1549 378.888 39.4473 380.724 34.9907C381.818 32.3369 386.493 10.451 386.493 7.98679C386.493 5.37522 384.705 2.61939 382.187 1.3488C380.034 0.262893 380.026 0.262467 365.439 0.171649C354.94 0.106034 350.233 0.233363 348.668 0.625315ZM397.26 1.86937C397.077 2.89749 395.992 8.13844 394.849 13.5158C393.706 18.8932 391.884 27.5948 390.8 32.8527C389.716 38.1106 388.741 42.6572 388.633 42.9557C388.482 43.3759 390.252 43.4989 396.44 43.4989H404.443L405.82 36.5863C406.578 32.7841 407.332 29.4764 407.496 29.2352C407.678 28.968 412.176 28.7385 419.035 28.6468C429.559 28.5065 430.434 28.4326 432.732 27.4927C435.537 26.3464 437.186 24.9168 438.579 22.4238C439.713 20.395 442 10.1217 442 7.05904C442 4.43053 440.562 2.34389 437.916 1.13153C436.128 0.312864 434.907 0.255073 416.805 0.13123L397.591 0L397.26 1.86937ZM91.0145 7.74562C88.6775 8.05632 87.5391 9.40076 86.7223 12.8158C85.4428 18.1623 82.6406 31.935 82.6406 32.8749C82.6406 33.3703 83.0799 34.2033 83.6163 34.726C84.5107 35.5981 85.0499 35.6772 90.1001 35.6772C96.7083 35.6772 98.1606 35.1905 98.8625 32.7411C99.7808 29.5359 103.216 12.1953 103.216 10.7648C103.216 8.38874 102.096 7.8399 96.9294 7.68738C94.466 7.61438 91.8041 7.64047 91.0145 7.74562ZM193.081 7.81601C191.042 8.20927 189.888 8.96623 189.343 10.2685C188.674 11.8663 184.925 30.6053 184.918 32.3878C184.906 35.2027 186 35.6772 192.504 35.6772C197.766 35.6772 197.994 35.6377 199.411 34.4823C200.816 33.3364 200.964 32.8619 203.007 22.9366C205.409 11.2723 205.548 9.64149 204.233 8.5608C203.194 7.70693 196.101 7.2333 193.081 7.81601ZM358.5 7.68784C357.974 7.80473 357.043 7.99808 356.432 8.11714C355.033 8.39003 353.795 10.8943 353.011 15.0367C352.695 16.7097 351.809 21.0551 351.042 24.6934C348.737 35.6299 348.763 35.6772 356.901 35.6772C362.566 35.6772 364.076 35.34 365.165 33.8304C365.948 32.745 367.146 27.8882 369.046 18.0893C370.991 8.05936 370.91 7.8938 363.926 7.63829C361.468 7.54834 359.027 7.57095 358.5 7.68784ZM412.127 7.81732C411.787 8.3166 409.461 19.2235 409.461 20.3181C409.461 21.188 420.48 21.1441 422.347 20.2672C423.905 19.5355 424.111 19.1418 425.044 15.1171C425.937 11.2636 425.921 8.98536 424.994 8.28706C423.992 7.53227 412.604 7.11597 412.127 7.81732ZM133.123 65.755C131.018 69.3769 128.273 73.9686 127.022 75.9584C125.772 77.9481 124.749 79.6715 124.749 79.788C124.749 79.9044 126.214 80 128.004 80H131.258L132.304 78.0446L133.35 76.0892H137.873H142.395L142.718 78.0446L143.041 80H146.321C148.73 80 149.55 79.8557 149.408 79.4568C149.302 79.1583 148.21 74.7095 146.982 69.5711C145.754 64.4327 144.671 59.9844 144.574 59.6854C144.452 59.3095 143.252 59.1466 140.675 59.1557L136.951 59.1692L133.123 65.755ZM159.468 60.1199C159.341 60.6575 158.464 64.9107 157.519 69.5711C156.573 74.2315 155.681 78.4848 155.535 79.0223C155.281 79.9605 155.396 80 158.373 80H161.476L162.312 76.0892L163.149 72.1783H164.673C166.957 72.1783 167.709 72.9431 168.949 76.5237L170.077 79.7827L173.492 79.9105C175.37 79.9805 176.907 79.9548 176.907 79.8536C176.907 79.4469 174.47 73.6432 173.966 72.8497C173.581 72.2435 173.576 71.9554 173.948 71.8429C175.06 71.5061 177.579 69.7367 178.427 68.696C179.745 67.0791 180.082 63.5436 179.085 61.7929C177.795 59.5285 176.087 59.1422 167.361 59.1422C159.802 59.1422 159.696 59.1553 159.468 60.1199ZM186.326 68.3766C185.322 73.455 184.381 78.1476 184.236 78.805L183.973 80H186.915C188.852 80 189.919 79.8145 190.038 79.4568C190.138 79.1583 190.687 76.4694 191.256 73.4819C191.826 70.4945 192.476 67.6592 192.702 67.1812L193.111 66.3121L193.133 67.1812C193.145 67.6592 193.733 70.7392 194.441 74.0251L195.727 80H197.727H199.727L203.925 73.0266C206.234 69.1914 208.175 66.1113 208.237 66.1826C208.3 66.2539 207.744 69.0497 207.001 72.3956C206.257 75.7415 205.642 78.8216 205.633 79.2396C205.62 79.8853 206.074 80 208.645 80H211.672L212.237 77.2842C212.547 75.7906 213.521 71.0977 214.401 66.8553L215.999 59.1422L211.646 59.1492L207.292 59.1561L203.464 65.3965C201.358 68.8285 199.511 71.4162 199.358 71.1472C199.206 70.8778 198.475 68.0668 197.736 64.8998L196.391 59.1422L192.271 59.1427L188.152 59.1435L186.326 68.3766ZM223.573 60.1199C223.438 60.6575 222.571 64.8129 221.646 69.3539C220.72 73.8948 219.841 78.1476 219.691 78.805L219.418 80H228.548C235.975 80 237.677 79.8888 237.677 79.4025C237.677 79.074 237.812 78.1941 237.976 77.4471L238.275 76.0892H232.473C226.03 76.0892 226.37 76.2839 226.979 72.9388L227.275 71.3093H232.656H238.036L238.335 69.9513C238.914 67.3246 239.051 67.3984 233.588 67.3984H228.542L228.841 65.7689C229.004 64.8729 229.223 63.8952 229.326 63.5962C229.462 63.2012 231.081 63.0531 235.261 63.0531H241.009L241.301 61.8581C241.462 61.2006 241.696 60.3207 241.821 59.9027C242.032 59.1979 241.382 59.1422 232.933 59.1422C223.873 59.1422 223.817 59.1479 223.573 60.1199ZM249.161 59.9913C249.161 60.458 248.3 64.9407 247.247 69.9526C246.195 74.9641 245.333 79.2843 245.333 79.5533C245.333 79.8757 246.338 79.9974 248.295 79.9122L251.257 79.7827L252.354 74.351C254.055 65.9345 253.738 66.1935 256.051 71.3354C257.174 73.8305 258.547 76.8009 259.103 77.936L260.113 80H263.481C266.58 80 266.868 79.9222 267.099 79.0223C267.517 77.3915 271.173 59.8666 271.173 59.4916C271.173 58.895 265.426 59.0805 265.175 59.6854C265.051 59.9844 264.436 62.9662 263.808 66.3121C263.017 70.5301 262.551 72.1292 262.289 71.5265C262.082 71.0486 260.967 68.6043 259.812 66.0948C258.657 63.5854 257.489 60.9947 257.218 60.3372C256.736 59.1722 256.629 59.1422 252.943 59.1422C249.51 59.1422 249.161 59.2204 249.161 59.9913ZM279.554 59.6854C279.338 60.2638 275.479 79.2352 275.479 79.7158C275.479 79.8723 276.852 80 278.53 80H281.58L281.906 78.5878C282.084 77.8108 282.964 73.6227 283.86 69.2804C284.757 64.9381 285.63 60.8804 285.8 60.2638C286.11 59.1422 286.11 59.1422 282.933 59.1422C280.818 59.1422 279.688 59.3239 279.554 59.6854ZM298.172 63.12C296.961 65.3074 294.268 69.8914 292.185 73.3064C290.103 76.7219 288.399 79.6246 288.399 79.758C288.399 79.8909 289.756 80 291.414 80H294.429L295.483 78.029L296.538 76.0579L301.187 76.1822L305.836 76.3064L306.237 78.1532L306.639 80H310.011C313.028 80 313.349 79.9201 313.058 79.2396C312.742 78.503 308.018 59.9005 308.018 59.3938C308.018 59.2552 306.298 59.1422 304.195 59.1422H300.371L298.172 63.12ZM164.743 64.8998C164.565 65.9154 164.293 67.2094 164.138 67.7747C163.856 68.799 163.87 68.8024 167.502 68.636C171.522 68.4513 172.397 67.9951 172.873 65.8341C173.336 63.734 172.221 63.0531 168.32 63.0531H165.066L164.743 64.8998ZM137.514 68.1589L135.267 72.1783H138.424H141.581L141.277 70.5488C141.109 69.6528 140.699 67.8438 140.366 66.5294L139.76 64.1394L137.514 68.1589ZM302.92 64.8429C302.345 65.4895 298.926 71.5735 298.926 71.9502C298.926 72.0758 300.326 72.1783 302.036 72.1783C303.747 72.1783 305.137 72.0319 305.125 71.8524C305.113 71.673 304.732 69.8875 304.279 67.8847C303.64 65.065 303.334 64.3784 302.92 64.8429Z"/>
</mask>
<path fill-rule="evenodd" clip-rule="evenodd" d="M7.77523 6.44507C5.07118 19.5251 0.281798 42.0023 0.0420658 42.7385C-0.185225 43.4363 0.325343 43.4989 6.23204 43.4989H12.6694L15.4141 30.6801C16.9243 23.6297 18.2991 17.8612 18.4699 17.8612C18.6407 17.8612 20.0432 23.6297 21.5864 30.6801L24.3924 43.4989L27.0792 43.4963L29.7655 43.4937L36.3063 33.3933C39.9032 27.8382 43.738 21.9241 44.827 20.2512C46.2889 18.0055 46.7368 17.5505 46.5387 18.513C46.3913 19.23 45.3032 24.6074 44.1208 30.4628C42.9384 36.3182 41.8455 41.6465 41.6919 42.3039L41.4129 43.4989H48.868C52.9679 43.4989 56.3227 43.4007 56.3227 43.2808C56.3227 43.1608 57.2816 38.5169 58.454 32.9605C62.4605 13.9734 64.9359 1.72208 64.9359 0.883421C64.9359 0.0869144 64.5119 0.0451889 56.406 0.0451889H47.8766L40.0448 11.7777C35.7373 18.2306 32.0825 23.5102 31.9231 23.5102C31.6915 23.5102 28.9841 12.247 26.7524 2.0006L26.3739 0.262459L17.7382 0.144282L9.10213 0.0260714L7.77523 6.44507ZM81.9229 0.452785C75.7233 1.8294 72.6312 5.69765 70.9062 14.2341C70.4789 16.3486 69.375 21.696 68.4529 26.1174C66.1513 37.156 66.6106 39.7984 71.2526 42.2118C73.2763 43.2643 73.5189 43.2838 86.1577 43.422C100.96 43.584 104.279 43.2447 108.082 41.1811C111.351 39.4073 113.316 36.5063 114.369 31.8998C116.277 23.558 118.531 12.3956 118.813 9.88659C119.341 5.20793 116.816 1.70251 112.069 0.524918C109.917 -0.00912797 84.2781 -0.0699626 81.9229 0.452785ZM125.505 0.58836C125.256 1.37618 124.271 6.79268 124.271 7.37366C124.271 7.71999 126.46 7.86687 131.627 7.86687H138.984L138.069 12.5381C137.565 15.1076 135.977 22.7702 134.54 29.5663C133.103 36.3625 131.927 42.2826 131.927 42.7219C131.927 43.4685 132.418 43.5132 139.426 43.4011L146.925 43.2816L147.5 40.8917C147.817 39.5772 149.55 31.6091 151.352 23.1843L154.629 7.86687H161.931C169.117 7.86687 169.236 7.85121 169.459 6.88915C170.2 3.6853 170.686 1.22539 170.686 0.675697C170.686 0.133829 167.527 0.0451889 148.181 0.0451889C130.588 0.0451889 125.639 0.163817 125.505 0.58836ZM182.732 0.872994C179.728 1.81507 176.817 4.20545 175.218 7.04298C174.15 8.938 171.527 19.9813 169.491 31.1515C168.333 37.5097 169.35 40.1929 173.722 42.3161C175.652 43.2534 176.14 43.2816 190.305 43.2816C206.63 43.2816 208.065 43.0717 211.851 40.1291C214.922 37.7417 215.866 35.274 218.54 22.6411C221.719 7.62613 221.707 5.10407 218.449 2.34129C215.996 0.260722 214.171 0.0443283 199.217 0.0595371C186.954 0.0717042 184.974 0.169478 182.732 0.872994ZM239.83 0.449313C232.761 2.00235 228.586 7.8738 228.586 16.2638C228.586 22.3043 231.079 24.0968 242.336 26.1513C252.322 27.9733 254.816 28.6599 255.175 29.6854C255.713 31.2263 254.925 33.4107 253.415 34.5648L251.959 35.6772H238.358C230.878 35.6772 224.756 35.8237 224.754 36.0031C224.746 36.6571 223.757 42.0002 223.5 42.7676C223.249 43.5224 224.011 43.5506 240.865 43.4107C257.352 43.2738 258.642 43.2065 260.806 42.3743C263.916 41.1785 266.11 39.5216 267.56 37.2741C269.159 34.7964 270.363 29.3478 270.131 25.632C269.971 23.0622 269.759 22.4903 268.526 21.3123C265.978 18.8767 264.276 18.3262 253.229 16.3651C246.115 15.1023 244.687 14.4066 244.469 12.0945C244.354 10.8739 244.628 10.2325 245.749 9.09573L247.176 7.64959L260.079 7.68001L272.983 7.71044L273.562 4.44877C273.881 2.655 274.25 0.930355 274.384 0.616184C274.58 0.150795 271.543 0.0534388 257.945 0.0895054C248.772 0.114274 240.62 0.275932 239.83 0.449313ZM284.136 2.32651C283.859 3.58146 282.221 11.5496 280.496 20.0339C278.77 28.5182 276.965 37.2689 276.484 39.4794L275.608 43.4989H283.354H291.1L292.162 37.9585C292.747 34.9111 293.593 30.883 294.042 29.0066L294.859 25.5955L302.736 25.6585C307.068 25.6933 310.69 25.792 310.784 25.8771C311.001 26.0744 307.646 42.5573 307.278 43.0969C307.114 43.3368 310.181 43.4989 314.89 43.4989H322.775L323.044 42.3039C323.191 41.6465 325.153 32.1636 327.403 21.2302C329.653 10.2972 331.618 1.05767 331.77 0.698304C332.008 0.133406 330.974 0.0451889 324.099 0.0451889C316.845 0.0451889 316.153 0.111675 316.164 0.80563C316.171 1.22365 315.481 5.03672 314.63 9.27911L313.084 16.9921H304.877H296.67L297.788 11.6691C298.403 8.74158 299.2 4.92808 299.56 3.19558L300.214 0.0451889H292.427H284.639L284.136 2.32651ZM348.668 0.625315C344.398 1.69384 341.113 4.37186 339.321 8.24489C338.948 9.05052 337.639 14.4279 336.412 20.1947C332.944 36.495 333.24 39.7615 338.403 42.1762C340.738 43.2686 340.921 43.2834 353.768 43.4211C361.572 43.5045 367.866 43.3764 369.509 43.1004C375.144 42.1549 378.888 39.4473 380.724 34.9907C381.818 32.3369 386.493 10.451 386.493 7.98679C386.493 5.37522 384.705 2.61939 382.187 1.3488C380.034 0.262893 380.026 0.262467 365.439 0.171649C354.94 0.106034 350.233 0.233363 348.668 0.625315ZM397.26 1.86937C397.077 2.89749 395.992 8.13844 394.849 13.5158C393.706 18.8932 391.884 27.5948 390.8 32.8527C389.716 38.1106 388.741 42.6572 388.633 42.9557C388.482 43.3759 390.252 43.4989 396.44 43.4989H404.443L405.82 36.5863C406.578 32.7841 407.332 29.4764 407.496 29.2352C407.678 28.968 412.176 28.7385 419.035 28.6468C429.559 28.5065 430.434 28.4326 432.732 27.4927C435.537 26.3464 437.186 24.9168 438.579 22.4238C439.713 20.395 442 10.1217 442 7.05904C442 4.43053 440.562 2.34389 437.916 1.13153C436.128 0.312864 434.907 0.255073 416.805 0.13123L397.591 0L397.26 1.86937ZM91.0145 7.74562C88.6775 8.05632 87.5391 9.40076 86.7223 12.8158C85.4428 18.1623 82.6406 31.935 82.6406 32.8749C82.6406 33.3703 83.0799 34.2033 83.6163 34.726C84.5107 35.5981 85.0499 35.6772 90.1001 35.6772C96.7083 35.6772 98.1606 35.1905 98.8625 32.7411C99.7808 29.5359 103.216 12.1953 103.216 10.7648C103.216 8.38874 102.096 7.8399 96.9294 7.68738C94.466 7.61438 91.8041 7.64047 91.0145 7.74562ZM193.081 7.81601C191.042 8.20927 189.888 8.96623 189.343 10.2685C188.674 11.8663 184.925 30.6053 184.918 32.3878C184.906 35.2027 186 35.6772 192.504 35.6772C197.766 35.6772 197.994 35.6377 199.411 34.4823C200.816 33.3364 200.964 32.8619 203.007 22.9366C205.409 11.2723 205.548 9.64149 204.233 8.5608C203.194 7.70693 196.101 7.2333 193.081 7.81601ZM358.5 7.68784C357.974 7.80473 357.043 7.99808 356.432 8.11714C355.033 8.39003 353.795 10.8943 353.011 15.0367C352.695 16.7097 351.809 21.0551 351.042 24.6934C348.737 35.6299 348.763 35.6772 356.901 35.6772C362.566 35.6772 364.076 35.34 365.165 33.8304C365.948 32.745 367.146 27.8882 369.046 18.0893C370.991 8.05936 370.91 7.8938 363.926 7.63829C361.468 7.54834 359.027 7.57095 358.5 7.68784ZM412.127 7.81732C411.787 8.3166 409.461 19.2235 409.461 20.3181C409.461 21.188 420.48 21.1441 422.347 20.2672C423.905 19.5355 424.111 19.1418 425.044 15.1171C425.937 11.2636 425.921 8.98536 424.994 8.28706C423.992 7.53227 412.604 7.11597 412.127 7.81732ZM133.123 65.755C131.018 69.3769 128.273 73.9686 127.022 75.9584C125.772 77.9481 124.749 79.6715 124.749 79.788C124.749 79.9044 126.214 80 128.004 80H131.258L132.304 78.0446L133.35 76.0892H137.873H142.395L142.718 78.0446L143.041 80H146.321C148.73 80 149.55 79.8557 149.408 79.4568C149.302 79.1583 148.21 74.7095 146.982 69.5711C145.754 64.4327 144.671 59.9844 144.574 59.6854C144.452 59.3095 143.252 59.1466 140.675 59.1557L136.951 59.1692L133.123 65.755ZM159.468 60.1199C159.341 60.6575 158.464 64.9107 157.519 69.5711C156.573 74.2315 155.681 78.4848 155.535 79.0223C155.281 79.9605 155.396 80 158.373 80H161.476L162.312 76.0892L163.149 72.1783H164.673C166.957 72.1783 167.709 72.9431 168.949 76.5237L170.077 79.7827L173.492 79.9105C175.37 79.9805 176.907 79.9548 176.907 79.8536C176.907 79.4469 174.47 73.6432 173.966 72.8497C173.581 72.2435 173.576 71.9554 173.948 71.8429C175.06 71.5061 177.579 69.7367 178.427 68.696C179.745 67.0791 180.082 63.5436 179.085 61.7929C177.795 59.5285 176.087 59.1422 167.361 59.1422C159.802 59.1422 159.696 59.1553 159.468 60.1199ZM186.326 68.3766C185.322 73.455 184.381 78.1476 184.236 78.805L183.973 80H186.915C188.852 80 189.919 79.8145 190.038 79.4568C190.138 79.1583 190.687 76.4694 191.256 73.4819C191.826 70.4945 192.476 67.6592 192.702 67.1812L193.111 66.3121L193.133 67.1812C193.145 67.6592 193.733 70.7392 194.441 74.0251L195.727 80H197.727H199.727L203.925 73.0266C206.234 69.1914 208.175 66.1113 208.237 66.1826C208.3 66.2539 207.744 69.0497 207.001 72.3956C206.257 75.7415 205.642 78.8216 205.633 79.2396C205.62 79.8853 206.074 80 208.645 80H211.672L212.237 77.2842C212.547 75.7906 213.521 71.0977 214.401 66.8553L215.999 59.1422L211.646 59.1492L207.292 59.1561L203.464 65.3965C201.358 68.8285 199.511 71.4162 199.358 71.1472C199.206 70.8778 198.475 68.0668 197.736 64.8998L196.391 59.1422L192.271 59.1427L188.152 59.1435L186.326 68.3766ZM223.573 60.1199C223.438 60.6575 222.571 64.8129 221.646 69.3539C220.72 73.8948 219.841 78.1476 219.691 78.805L219.418 80H228.548C235.975 80 237.677 79.8888 237.677 79.4025C237.677 79.074 237.812 78.1941 237.976 77.4471L238.275 76.0892H232.473C226.03 76.0892 226.37 76.2839 226.979 72.9388L227.275 71.3093H232.656H238.036L238.335 69.9513C238.914 67.3246 239.051 67.3984 233.588 67.3984H228.542L228.841 65.7689C229.004 64.8729 229.223 63.8952 229.326 63.5962C229.462 63.2012 231.081 63.0531 235.261 63.0531H241.009L241.301 61.8581C241.462 61.2006 241.696 60.3207 241.821 59.9027C242.032 59.1979 241.382 59.1422 232.933 59.1422C223.873 59.1422 223.817 59.1479 223.573 60.1199ZM249.161 59.9913C249.161 60.458 248.3 64.9407 247.247 69.9526C246.195 74.9641 245.333 79.2843 245.333 79.5533C245.333 79.8757 246.338 79.9974 248.295 79.9122L251.257 79.7827L252.354 74.351C254.055 65.9345 253.738 66.1935 256.051 71.3354C257.174 73.8305 258.547 76.8009 259.103 77.936L260.113 80H263.481C266.58 80 266.868 79.9222 267.099 79.0223C267.517 77.3915 271.173 59.8666 271.173 59.4916C271.173 58.895 265.426 59.0805 265.175 59.6854C265.051 59.9844 264.436 62.9662 263.808 66.3121C263.017 70.5301 262.551 72.1292 262.289 71.5265C262.082 71.0486 260.967 68.6043 259.812 66.0948C258.657 63.5854 257.489 60.9947 257.218 60.3372C256.736 59.1722 256.629 59.1422 252.943 59.1422C249.51 59.1422 249.161 59.2204 249.161 59.9913ZM279.554 59.6854C279.338 60.2638 275.479 79.2352 275.479 79.7158C275.479 79.8723 276.852 80 278.53 80H281.58L281.906 78.5878C282.084 77.8108 282.964 73.6227 283.86 69.2804C284.757 64.9381 285.63 60.8804 285.8 60.2638C286.11 59.1422 286.11 59.1422 282.933 59.1422C280.818 59.1422 279.688 59.3239 279.554 59.6854ZM298.172 63.12C296.961 65.3074 294.268 69.8914 292.185 73.3064C290.103 76.7219 288.399 79.6246 288.399 79.758C288.399 79.8909 289.756 80 291.414 80H294.429L295.483 78.029L296.538 76.0579L301.187 76.1822L305.836 76.3064L306.237 78.1532L306.639 80H310.011C313.028 80 313.349 79.9201 313.058 79.2396C312.742 78.503 308.018 59.9005 308.018 59.3938C308.018 59.2552 306.298 59.1422 304.195 59.1422H300.371L298.172 63.12ZM164.743 64.8998C164.565 65.9154 164.293 67.2094 164.138 67.7747C163.856 68.799 163.87 68.8024 167.502 68.636C171.522 68.4513 172.397 67.9951 172.873 65.8341C173.336 63.734 172.221 63.0531 168.32 63.0531H165.066L164.743 64.8998ZM137.514 68.1589L135.267 72.1783H138.424H141.581L141.277 70.5488C141.109 69.6528 140.699 67.8438 140.366 66.5294L139.76 64.1394L137.514 68.1589ZM302.92 64.8429C302.345 65.4895 298.926 71.5735 298.926 71.9502C298.926 72.0758 300.326 72.1783 302.036 72.1783C303.747 72.1783 305.137 72.0319 305.125 71.8524C305.113 71.673 304.732 69.8875 304.279 67.8847C303.64 65.065 303.334 64.3784 302.92 64.8429Z" fill="url(#paint0_linear_2376_16456)" stroke="white" stroke-width="2" mask="url(#path-1-inside-1_2376_16456)"/>
<defs>
<linearGradient id="paint0_linear_2376_16456" x1="0" y1="40" x2="442" y2="40" gradientUnits="userSpaceOnUse">
<stop stop-color="white" stop-opacity="0.7"/>
<stop offset="0.3" stop-color="white"/>
<stop offset="0.7" stop-color="white"/>
<stop offset="1" stop-color="white" stop-opacity="0.7"/>
</linearGradient>
</defs>
</svg>
