<svg width="18" height="18" viewBox="0 0 18 18" fill="none" xmlns="http://www.w3.org/2000/svg">
<path d="M9.00008 17.3337C7.84272 17.3337 6.7571 17.1149 5.74321 16.6774C4.72932 16.2399 3.84619 15.645 3.09383 14.8926C2.34147 14.1404 1.7489 13.255 1.31612 12.2364C0.883206 11.2179 0.666748 10.13 0.666748 8.97262C0.666748 7.81053 0.883206 6.72602 1.31612 5.71908C1.7489 4.71213 2.34147 3.83248 3.09383 3.08012C3.84619 2.3279 4.72932 1.73762 5.74321 1.30928C6.7571 0.88109 7.84272 0.666992 9.00008 0.666992C10.1622 0.666992 11.249 0.88109 12.2605 1.30928C13.272 1.73762 14.154 2.3279 14.9063 3.08012C15.6587 3.83248 16.2513 4.71213 16.684 5.71908C17.117 6.72602 17.3334 7.81053 17.3334 8.97262C17.3334 10.13 17.117 11.2179 16.684 12.2364C16.2513 13.255 15.6587 14.1404 14.9063 14.8926C14.154 15.645 13.272 16.2399 12.2605 16.6774C11.249 17.1149 10.1622 17.3337 9.00008 17.3337ZM9.00008 15.9587C9.44453 15.4587 9.81953 14.9031 10.1251 14.292C10.4306 13.6809 10.6806 12.9772 10.8751 12.181H7.13904C7.32418 12.9401 7.56953 13.6322 7.87508 14.2572C8.18064 14.8822 8.55564 15.4494 9.00008 15.9587ZM7.09737 15.681C6.78251 15.1762 6.5105 14.638 6.28133 14.0664C6.05217 13.4946 5.86119 12.8661 5.70842 12.181H2.80571C3.29182 13.0698 3.86703 13.7874 4.53133 14.3337C5.19564 14.8799 6.05099 15.329 7.09737 15.681ZM10.9167 15.667C11.8427 15.3707 12.6726 14.924 13.4063 14.3268C14.1401 13.7296 14.7361 13.0143 15.1945 12.181H12.3057C12.1436 12.8568 11.9503 13.4806 11.7257 14.0524C11.5013 14.6242 11.2316 15.1624 10.9167 15.667ZM2.29175 10.792H5.44446C5.40279 10.4494 5.37619 10.1334 5.36467 9.84408C5.35314 9.55477 5.34737 9.26429 5.34737 8.97262C5.34737 8.64387 5.35543 8.34408 5.37154 8.07324C5.38779 7.80241 5.41675 7.50956 5.45842 7.1947H2.29175C2.20383 7.50956 2.14251 7.80012 2.10779 8.06637C2.07307 8.33248 2.05571 8.63456 2.05571 8.97262C2.05571 9.31054 2.07307 9.61956 2.10779 9.8997C2.14251 10.1797 2.20383 10.4771 2.29175 10.792ZM6.86112 10.792H11.1528C11.2038 10.4124 11.2374 10.0872 11.2536 9.81637C11.2697 9.54554 11.2778 9.26429 11.2778 8.97262C11.2778 8.69012 11.2697 8.4181 11.2536 8.15658C11.2374 7.89505 11.2038 7.57442 11.1528 7.1947H6.86112C6.81029 7.57442 6.77675 7.89505 6.7605 8.15658C6.74425 8.4181 6.73612 8.69012 6.73612 8.97262C6.73612 9.26429 6.74425 9.54554 6.7605 9.81637C6.77675 10.0872 6.81029 10.4124 6.86112 10.792ZM12.5417 10.792H15.7084C15.7963 10.4771 15.8577 10.1797 15.8924 9.8997C15.9271 9.61956 15.9445 9.31054 15.9445 8.97262C15.9445 8.63456 15.9271 8.33248 15.8924 8.06637C15.8577 7.80012 15.7963 7.50956 15.7084 7.1947H12.5557C12.5974 7.61137 12.6263 7.95053 12.6424 8.2122C12.6586 8.47373 12.6667 8.7272 12.6667 8.97262C12.6667 9.27345 12.6563 9.55928 12.6355 9.83012C12.6147 10.101 12.5834 10.4216 12.5417 10.792ZM12.2917 5.80595H15.1945C14.7547 4.93553 14.1679 4.20171 13.434 3.60449C12.7003 3.00727 11.8565 2.57901 10.9028 2.3197C11.2177 2.81512 11.4874 3.34408 11.712 3.90658C11.9364 4.46908 12.1297 5.1022 12.2917 5.80595ZM7.13904 5.80595H10.889C10.7315 5.11151 10.4885 4.44484 10.1599 3.80595C9.83112 3.16706 9.44453 2.58831 9.00008 2.0697C8.58342 2.48637 8.22925 2.98873 7.93758 3.57678C7.64592 4.1647 7.37974 4.90776 7.13904 5.80595ZM2.80571 5.80595H5.72237C5.86585 5.12998 6.04751 4.51303 6.26737 3.95512C6.48737 3.39734 6.75939 2.85685 7.08342 2.33366C6.12967 2.59296 5.29286 3.01658 4.573 3.60449C3.85314 4.19241 3.26404 4.92623 2.80571 5.80595Z" fill="white"/>
</svg>
