<svg width="72" height="24" viewBox="0 0 72 24" fill="none" xmlns="http://www.w3.org/2000/svg">
<path fill-rule="evenodd" clip-rule="evenodd" d="M53.1514 22.3186V22.5054H61.3697V22.2252L61.1017 22.1318H53.33L53.1514 22.3186Z" fill="#F5F5F5"/>
<path fill-rule="evenodd" clip-rule="evenodd" d="M10.6304 22.3186V22.5054H18.9381L18.8487 22.1318H10.9877L10.6304 22.3186Z" fill="#F5F5F5"/>
<path fill-rule="evenodd" clip-rule="evenodd" d="M43.6823 21.1055L43.593 23.907H44.2183L44.3077 22.8798H44.7543L45.0223 23.1599L45.201 23.907H45.8263L45.6476 23.0666L45.3796 22.693L45.7369 22.3195V21.5724L45.201 21.1055H43.6823Z" fill="#F5F5F5"/>
<path fill-rule="evenodd" clip-rule="evenodd" d="M33.3201 21.1055V21.6658L34.124 21.7592V23.907H34.7493V21.7592L35.5533 21.6658V21.1055H33.3201Z" fill="#F5F5F5"/>
<path fill-rule="evenodd" clip-rule="evenodd" d="M22.2432 21.1989V23.907H22.7791L22.8685 22.3195L23.0471 22.5062L23.4045 23.907H23.9404L24.4764 22.2261L24.5657 23.907H25.1017V21.1055H24.2084L23.6724 22.7864L23.1365 21.1055L22.2432 21.1989Z" fill="#F5F5F5"/>
<path fill-rule="evenodd" clip-rule="evenodd" d="M48.9529 21.1055L48.5956 21.3856L48.417 21.7592L48.5063 22.3195L49.0423 22.693L49.8462 22.8798L50.0249 23.1599L49.5783 23.5335L49.2209 23.4401L48.9529 23.0666H48.3276L48.5063 23.6269L48.8636 23.907H50.1142L50.4716 23.6269L50.6502 23.2533L50.5609 22.693L49.9356 22.2261L49.2209 22.1327L49.0423 21.8526L49.3103 21.5724H49.6676L50.0249 21.9459H50.5609V21.6658L50.0249 21.1055H48.9529Z" fill="#F5F5F5"/>
<path fill-rule="evenodd" clip-rule="evenodd" d="M38.8587 21.1051L38.3227 21.572L38.144 21.9456V23.0662L38.7694 23.9067H40.02L40.4666 23.5331L40.6453 23.1596L40.7346 22.3191L40.556 21.6654L40.1093 21.1985L39.6627 21.0117L38.8587 21.1051Z" fill="#F5F5F5"/>
<path fill-rule="evenodd" clip-rule="evenodd" d="M39.3053 21.5723L39.8412 21.759L40.0199 22.0392V22.973L39.6626 23.44H39.1266L38.7693 22.973V22.1326L39.3053 21.5723Z" fill="#F5F5F5"/>
<path fill-rule="evenodd" clip-rule="evenodd" d="M29.1215 21.0117L28.5855 21.1985L28.2282 21.572L27.9602 22.2257V22.786L28.2282 23.5331L28.4962 23.8133L28.9428 24H29.5681L30.2828 23.5331L30.5508 22.8794V22.1323L30.1935 21.3853L29.8361 21.1051L29.1215 21.0117Z" fill="#F5F5F5"/>
<path fill-rule="evenodd" clip-rule="evenodd" d="M29.211 21.5723L29.5683 21.6657L29.9256 22.226L29.8363 23.0664L29.479 23.44H29.0323L28.675 23.0664L28.5857 22.6929L28.675 21.9458L29.211 21.5723Z" fill="#F5F5F5"/>
<path fill-rule="evenodd" clip-rule="evenodd" d="M56.9032 14.7552L56.9925 14.942L59.5831 14.8486L60.923 12.9809H65.4789L68.8797 18.0004L42.4797 18.3039L69.588 18.4907H71.732L72 18.3039L64.9429 7.56458L64.3176 7.09766H62.531L61.995 7.28443L56.9032 14.7552Z" fill="#F5F5F5"/>
<path fill-rule="evenodd" clip-rule="evenodd" d="M61.5483 11.9532L63.067 9.71191H63.3349L63.6029 9.99207L64.8536 11.9532L64.6749 12.1399H61.6377L61.5483 11.9532Z" fill="#F5F5F5"/>
<path fill-rule="evenodd" clip-rule="evenodd" d="M0 18.3039L0.26799 18.4907L19.687 18.3039L3.5732 17.9303L3.39454 17.6502L6.87841 12.4206L7.23573 12.1405L11.7916 12.2338V12.6074L10.3623 14.6619L10.4516 14.942H12.8635L13.2208 14.7552L14.3821 12.9809H18.5806L19.9206 14.8486H22.5112L17.5087 7.28443L16.0794 7.09766L15.4541 7.28443L12.5955 11.3934H7.77171L7.68238 11.3L10.273 7.4712V7.19104L10.0943 7.09766H7.77171L7.32506 7.19104L0.62531 17.0899L0.08933 17.9303L0 18.3039Z" fill="#F5F5F5"/>
<path fill-rule="evenodd" clip-rule="evenodd" d="M15.0073 12.0467L16.1686 10.2723L16.5259 9.99219L16.9726 10.2723L18.0445 11.9533L17.9552 12.14L15.0073 12.0467Z" fill="#F5F5F5"/>
<path fill-rule="evenodd" clip-rule="evenodd" d="M43.6823 14.8486L34.392 0.560676L33.7667 0.09375H33.32L32.6947 0.747446L25.0124 12.4206L24.4764 11.8603L21.7965 7.75134L21.3498 7.28441L20.8138 7.09764L18.6699 7.19103L19.3846 8.49842L23.5831 14.7552L21.2605 18.2105V18.3973L21.5285 18.4906H23.7617L24.4796 18.4804L33.588 4.01593L33.9454 4.29608L40.3771 14.3817L41.2704 14.942L43.6823 14.8486Z" fill="#F5F5F5"/>
<path fill-rule="evenodd" clip-rule="evenodd" d="M35.6426 0.18677V0.373541L44.5756 14.1946L45.1116 14.7549L45.6475 14.9416H54.4019L55.1165 14.6615L57.5284 11.2062L57.6178 10.6459L57.4391 10.4591H50.4714L50.382 10.0856L51.8113 8.12451H59.1364L59.7617 7.28405L59.6724 7.09728L49.6674 7.19066L49.0421 7.75097L47.2555 10.3658L47.1662 11.0195L47.3448 11.2062L54.4019 11.2996L54.4912 11.5798L52.8833 13.9144L47.7021 14.0078L47.4341 13.821L38.8585 0.560311L38.5011 0.18677L38.0545 0H35.8212L35.6426 0.18677Z" fill="#F5F5F5"/>
<path fill-rule="evenodd" clip-rule="evenodd" d="M33.2293 6.08196L26.7076 17.3353L29.2797 17.5203L34.7438 7.97187L33.2293 6.08196Z" fill="#FF0000"/>
<path fill-rule="evenodd" clip-rule="evenodd" d="M34.7453 8.35591L29.5196 17.5203L31.4399 17.7603L35.9661 10.0381L34.7453 8.35591Z" fill="#0057B7"/>
<path fill-rule="evenodd" clip-rule="evenodd" d="M35.9555 10.5528L31.9203 17.7602L33.3602 18.0002L36.7204 11.5202L35.9555 10.5528Z" fill="#FFD500"/>
</svg>
