<svg width="32" height="32" viewBox="0 0 32 32" fill="none" xmlns="http://www.w3.org/2000/svg">
<path d="M22 20.6667C22 18.828 23.4947 17.3333 25.3333 17.3333C27.172 17.3333 28.6667 18.828 28.6667 20.6667C28.6667 22.5053 27.172 24 25.3333 24C23.4947 24 22 22.5053 22 20.6667ZM28 25.3333H22.6667C20.4613 25.3333 18.6667 27.128 18.6667 29.3333V32H21.3333V29.3333C21.3333 28.5987 21.9307 28 22.6667 28H28C28.736 28 29.3333 28.5987 29.3333 29.3333V32H32V29.3333C32 27.128 30.2053 25.3333 28 25.3333ZM28.9333 0H3.06533L0.0333333 13.188L0 14.7173C0 16.0453 0.513333 17.2453 1.33333 18.1733V27.9987C1.33333 30.204 3.128 31.9987 5.33333 31.9987H16V29.332H5.33333C4.59867 29.332 4 28.7333 4 27.9987V19.8107C4.42933 19.9213 4.87067 19.9987 5.33333 19.9987H6.66667C8.25867 19.9987 9.672 19.268 10.6413 18.14C11.6107 19.2693 13.0227 19.9987 14.616 19.9987H17.3853C18.116 19.9987 18.8107 19.848 19.444 19.576C19.784 17.7253 20.9787 16.1907 22.5987 15.3533C22.628 15.1253 22.668 14.9 22.668 14.664H20.0013C20.0013 16.16 18.8533 17.3307 17.3853 17.3307H14.616C13.1493 17.3307 12.0013 16.16 12.0013 14.664H9.28267C9.28267 16.16 8.13467 17.3307 6.668 17.3307H5.33467C3.83867 17.3307 2.668 16.1827 2.668 14.716V13.636L5.18933 2.66667H9.33333V8H12V2.66667H20V8H22.6667V2.66667H26.8107L29.3333 13.6387V14.7187C29.3333 15.1733 29.2107 15.5893 29.0107 15.9587C29.7387 16.528 30.3307 17.2533 30.7333 18.096C31.512 17.1773 32 16.0093 32 14.7187V13.488L28.9333 0Z" fill="#0A0A0A"/>
</svg>
