<svg width="28" height="28" viewBox="0 0 28 28" fill="none" xmlns="http://www.w3.org/2000/svg">
<path d="M22.1667 2.33325H5.83333C2.61333 2.33325 0 4.94659 0 8.16658V19.8333C0 23.0533 2.61333 25.6666 5.83333 25.6666H22.1667C25.3867 25.6666 28 23.0533 28 19.8333V8.16658C28 4.94659 25.3867 2.33325 22.1667 2.33325ZM5.83333 4.66659H22.1667C24.0917 4.66659 25.6667 6.24159 25.6667 8.16658H2.33333C2.33333 6.24159 3.90833 4.66659 5.83333 4.66659ZM22.1667 23.3333H5.83333C3.90833 23.3333 2.33333 21.7583 2.33333 19.8333V10.4999H25.6667V19.8333C25.6667 21.7583 24.0917 23.3333 22.1667 23.3333ZM11.6667 13.9999C11.6667 14.6416 11.1417 15.1666 10.5 15.1666H9.33333V19.8333C9.33333 20.4749 8.80833 20.9999 8.16667 20.9999C7.525 20.9999 7 20.4749 7 19.8333V15.1666H5.83333C5.19167 15.1666 4.66667 14.6416 4.66667 13.9999C4.66667 13.3583 5.19167 12.8333 5.83333 12.8333H10.5C11.1417 12.8333 11.6667 13.3583 11.6667 13.9999ZM23.3333 13.9999C23.3333 14.6416 22.8083 15.1666 22.1667 15.1666H15.1667C14.525 15.1666 14 14.6416 14 13.9999C14 13.3583 14.525 12.8333 15.1667 12.8333H22.1667C22.8083 12.8333 23.3333 13.3583 23.3333 13.9999ZM23.3333 18.6666C23.3333 19.3083 22.8083 19.8333 22.1667 19.8333H15.1667C14.525 19.8333 14 19.3083 14 18.6666C14 18.0249 14.525 17.4999 15.1667 17.4999H22.1667C22.8083 17.4999 23.3333 18.0249 23.3333 18.6666Z" fill="#0A0A0A"/>
</svg>
