<svg width="28" height="28" viewBox="0 0 28 28" fill="none" xmlns="http://www.w3.org/2000/svg">
<g clip-path="url(#clip0_1985_2727)">
<path d="M21.5833 16.9167C22.5493 16.9167 23.3333 17.7007 23.3333 18.6667C23.3333 19.6327 22.5493 20.4167 21.5833 20.4167C20.6173 20.4167 19.8333 19.6327 19.8333 18.6667C19.8333 17.7007 20.6173 16.9167 21.5833 16.9167ZM26.8333 11.6667C26.1882 11.6667 25.6667 12.1893 25.6667 12.8333V24.5C25.6667 25.144 25.144 25.6667 24.5 25.6667H5.83333C3.90367 25.6667 2.33333 24.0963 2.33333 22.1667V10.5C2.33333 10.5 2.33333 10.4953 2.33333 10.4942C3.32967 11.2408 4.5535 11.6667 5.83217 11.6667H15.1667C15.8118 11.6667 16.3333 11.144 16.3333 10.5C16.3333 9.856 15.8118 9.33333 15.1667 9.33333H5.83333C4.83467 9.33333 3.90483 8.88883 3.24683 8.162C3.88733 7.45383 4.80433 7 5.83333 7H14C14.6452 7 15.1667 6.47733 15.1667 5.83333C15.1667 5.18933 14.6452 4.66667 14 4.66667H5.83333C2.59467 4.65967 0.0233333 7.35467 0 10.5V22.1667C0 25.3832 2.61683 28 5.83333 28H24.5C26.4297 28 28 26.4297 28 24.5V12.8333C28 12.1893 27.4785 11.6667 26.8333 11.6667ZM20.4132 10.9492C21.364 11.9 22.9192 11.9082 23.8712 10.9597L26.4798 8.41983C26.9418 7.97067 26.9512 7.23217 26.5032 6.77017C26.0517 6.30817 25.3132 6.29767 24.8535 6.748L23.3333 8.22733V1.16667C23.3333 0.522667 22.8118 0 22.1667 0C21.5215 0 21 0.522667 21 1.16667V8.24833L19.4868 6.75383C19.0272 6.30117 18.291 6.30467 17.836 6.76433C17.3833 7.22283 17.388 7.96133 17.8465 8.414L20.4132 10.9492Z" fill="#D0021B"/>
</g>
<defs>
<clipPath id="clip0_1985_2727">
<rect width="28" height="28" fill="white"/>
</clipPath>
</defs>
</svg>
