<svg width="32" height="32" viewBox="0 0 32 32" fill="none" xmlns="http://www.w3.org/2000/svg">
<path d="M25.3333 2.66675H6.66667C2.98667 2.66675 0 5.65341 0 9.33341V22.6667C0 26.3467 2.98667 29.3334 6.66667 29.3334H25.3333C29.0133 29.3334 32 26.3467 32 22.6667V9.33341C32 5.65341 29.0133 2.66675 25.3333 2.66675ZM6.66667 5.33341H25.3333C27.5333 5.33341 29.3333 7.13341 29.3333 9.33341H2.66667C2.66667 7.13341 4.46667 5.33341 6.66667 5.33341ZM25.3333 26.6667H6.66667C4.46667 26.6667 2.66667 24.8667 2.66667 22.6667V12.0001H29.3333V22.6667C29.3333 24.8667 27.5333 26.6667 25.3333 26.6667ZM13.3333 16.0001C13.3333 16.7334 12.7333 17.3334 12 17.3334H10.6667V22.6667C10.6667 23.4001 10.0667 24.0001 9.33333 24.0001C8.6 24.0001 8 23.4001 8 22.6667V17.3334H6.66667C5.93333 17.3334 5.33333 16.7334 5.33333 16.0001C5.33333 15.2667 5.93333 14.6667 6.66667 14.6667H12C12.7333 14.6667 13.3333 15.2667 13.3333 16.0001ZM26.6667 16.0001C26.6667 16.7334 26.0667 17.3334 25.3333 17.3334H17.3333C16.6 17.3334 16 16.7334 16 16.0001C16 15.2667 16.6 14.6667 17.3333 14.6667H25.3333C26.0667 14.6667 26.6667 15.2667 26.6667 16.0001ZM26.6667 21.3334C26.6667 22.0667 26.0667 22.6667 25.3333 22.6667H17.3333C16.6 22.6667 16 22.0667 16 21.3334C16 20.6001 16.6 20.0001 17.3333 20.0001H25.3333C26.0667 20.0001 26.6667 20.6001 26.6667 21.3334Z" fill="#0A0A0A"/>
</svg>
