<svg width="24" height="24" viewBox="0 0 24 24" fill="none" xmlns="http://www.w3.org/2000/svg">
<path d="M22.3448 3.93115H1.65519C0.855324 3.93115 0.206909 4.57957 0.206909 5.37943V18.6208C0.206909 19.4207 0.855324 20.0691 1.65519 20.0691H22.3448C23.1447 20.0691 23.7931 19.4207 23.7931 18.6208V5.37943C23.7931 4.57957 23.1447 3.93115 22.3448 3.93115Z" fill="white"/>
<path fill-rule="evenodd" clip-rule="evenodd" d="M7.27327 9.90069C7.09873 10.1096 6.81942 10.2743 6.54011 10.2508C6.50518 9.96834 6.6419 9.6683 6.80196 9.48301C6.97649 9.26825 7.282 9.11527 7.52932 9.10352C7.55841 9.39768 7.44495 9.68597 7.27327 9.90069ZM7.52638 10.3067C7.28034 10.2923 7.05582 10.3815 6.87445 10.4535C6.75776 10.4998 6.65891 10.539 6.58372 10.539C6.49935 10.539 6.39644 10.4977 6.28091 10.4513C6.1295 10.3905 5.95641 10.321 5.77488 10.3243C5.35885 10.3302 4.97187 10.5685 4.75947 10.9479C4.32305 11.7069 4.64601 12.8306 5.06787 13.4483C5.27448 13.7543 5.52176 14.0896 5.84763 14.0778C5.991 14.0724 6.09412 14.0282 6.20084 13.9823C6.32369 13.9296 6.45135 13.8749 6.65063 13.8749C6.84305 13.8749 6.96512 13.9282 7.08226 13.9794C7.19365 14.0281 7.30066 14.0748 7.45947 14.072C7.797 14.0661 8.00936 13.7661 8.21597 13.4601C8.43888 13.1318 8.53683 12.8113 8.55172 12.7627L8.55346 12.7571C8.55346 12.7571 8.55036 12.7554 8.54547 12.7532C8.47095 12.7187 7.90136 12.455 7.8959 11.7481C7.89044 11.1547 8.34768 10.854 8.41968 10.8067C8.42407 10.8038 8.427 10.8018 8.42833 10.8009C8.13739 10.3655 7.6835 10.3184 7.52638 10.3067ZM9.8627 14.0396V9.45358H11.5648C12.4434 9.45358 13.0573 10.0654 13.0573 10.9597C13.0573 11.854 12.4318 12.4717 11.5415 12.4717H10.5668V14.0396H9.8627ZM10.5668 10.0537H11.3785C11.9896 10.0537 12.3387 10.3831 12.3387 10.9626C12.3387 11.5422 11.9896 11.8746 11.3757 11.8746H10.5668V10.0537ZM15.382 13.4895C15.1958 13.8484 14.7856 14.0749 14.3433 14.0749C13.6887 14.0749 13.2319 13.6807 13.2319 13.0865C13.2319 12.4982 13.6742 12.1599 14.4917 12.1099L15.3704 12.0569V11.804C15.3704 11.4304 15.1289 11.2274 14.6983 11.2274C14.3433 11.2274 14.0844 11.4127 14.032 11.6951H13.3977C13.4181 11.1009 13.9709 10.6685 14.7186 10.6685C15.5245 10.6685 16.0483 11.095 16.0483 11.7569V14.0396H15.3966V13.4895H15.382ZM14.5324 13.5307C14.1571 13.5307 13.9185 13.3483 13.9185 13.0689C13.9185 12.7806 14.1484 12.6129 14.5877 12.5865L15.3704 12.5364V12.7953C15.3704 13.2248 15.0096 13.5307 14.5324 13.5307ZM18.21 14.2191C17.9278 15.0221 17.6049 15.2869 16.9182 15.2869C16.8659 15.2869 16.6913 15.281 16.6505 15.2692V14.7191C16.6942 14.725 16.8018 14.7309 16.8571 14.7309C17.1684 14.7309 17.343 14.5985 17.4506 14.2544L17.5146 14.0514L16.3218 10.7126H17.0579L17.8871 13.4219H17.9016L18.7308 10.7126H19.4466L18.21 14.2191Z" fill="black"/>
</svg>
