<svg width="24" height="24" viewBox="0 0 24 24" fill="none" xmlns="http://www.w3.org/2000/svg">
<path d="M21.9428 3.94287H2.0571C1.01565 3.94287 0.171387 4.78713 0.171387 5.82859V18.1714C0.171387 19.2129 1.01565 20.0572 2.0571 20.0572H21.9428C22.9843 20.0572 23.8285 19.2129 23.8285 18.1714V5.82859C23.8285 4.78713 22.9843 3.94287 21.9428 3.94287Z" fill="white"/>
<path fill-rule="evenodd" clip-rule="evenodd" d="M12.1353 15.6897C11.3182 16.3948 10.2583 16.8205 9.1002 16.8205C6.51595 16.8205 4.42102 14.7012 4.42102 12.087C4.42102 9.47275 6.51595 7.35352 9.1002 7.35352C10.2583 7.35352 11.3182 7.77917 12.1353 8.48429C12.9524 7.77917 14.0123 7.35352 15.1704 7.35352C17.7547 7.35352 19.8496 9.47275 19.8496 12.087C19.8496 14.7012 17.7547 16.8205 15.1704 16.8205C14.0123 16.8205 12.9524 16.3948 12.1353 15.6897Z" fill="#ED0006"/>
<path fill-rule="evenodd" clip-rule="evenodd" d="M12.1353 15.6897C13.1413 14.8215 13.7793 13.5296 13.7793 12.087C13.7793 10.6444 13.1413 9.35248 12.1353 8.48429C12.9524 7.77917 14.0122 7.35352 15.1704 7.35352C17.7546 7.35352 19.8495 9.47275 19.8495 12.087C19.8495 14.7012 17.7546 16.8205 15.1704 16.8205C14.0122 16.8205 12.9524 16.3948 12.1353 15.6897Z" fill="#F9A000"/>
<path fill-rule="evenodd" clip-rule="evenodd" d="M12.1353 8.48438C13.1414 9.35259 13.7794 10.6444 13.7794 12.0871C13.7794 13.5297 13.1414 14.8215 12.1353 15.6898C11.1293 14.8215 10.4913 13.5297 10.4913 12.0871C10.4913 10.6444 11.1293 9.35259 12.1353 8.48438Z" fill="#FF5E00"/>
</svg>
