<svg width="24" height="24" viewBox="0 0 24 24" fill="none" xmlns="http://www.w3.org/2000/svg">
<path d="M24 4.30762H0V19.6922H24V4.30762Z" fill="white"/>
<path d="M9.02156 15.0376L10.048 9.01425H11.6898L10.6626 15.0376H9.02156ZM16.5942 9.1441C16.269 9.02207 15.7593 8.89111 15.1228 8.89111C13.5004 8.89111 12.3577 9.70807 12.348 10.8789C12.3388 11.7444 13.1638 12.2273 13.7865 12.5154C14.4257 12.8107 14.6405 12.999 14.6374 13.2626C14.6333 13.6663 14.127 13.8507 13.6551 13.8507C12.998 13.8507 12.6489 13.7594 12.1097 13.5346L11.8981 13.4389L11.6677 14.7873C12.0512 14.9555 12.7603 15.1011 13.4966 15.1087C15.2224 15.1087 16.3428 14.301 16.3555 13.0507C16.3617 12.3654 15.9243 11.844 14.977 11.4141C14.4032 11.1355 14.0517 10.9495 14.0555 10.6674C14.0555 10.417 14.3529 10.1493 14.9958 10.1493C15.5326 10.1409 15.9216 10.258 16.2246 10.38L16.3717 10.4495L16.5942 9.1441ZM20.8191 9.01416H19.5505C19.1575 9.01416 18.8633 9.12142 18.6908 9.51367L16.2525 15.0337H17.9765C17.9765 15.0337 18.2583 14.2915 18.3221 14.1285C18.5105 14.1285 20.1853 14.1311 20.4247 14.1311C20.4738 14.342 20.6245 15.0337 20.6245 15.0337H22.1479L20.8191 9.01397V9.01416ZM18.8063 12.9037C18.9421 12.5567 19.4604 11.2199 19.4604 11.2199C19.4508 11.2359 19.5952 10.8711 19.6781 10.645L19.789 11.1643C19.789 11.1643 20.1034 12.6021 20.1691 12.9036H18.8063V12.9037ZM7.62781 9.01416L6.02046 13.1219L5.84922 12.2871C5.54996 11.3248 4.61769 10.2823 3.57544 9.76034L5.04519 15.028L6.78227 15.0261L9.36701 9.0141L7.62781 9.01407" fill="#0E4595"/>
<path d="M4.52057 9.01416H1.87316L1.85217 9.13948C3.91183 9.63807 5.27463 10.843 5.84048 12.2909L5.26482 9.52287C5.16547 9.14145 4.87722 9.02761 4.52063 9.01431" fill="#F2AE14"/>
</svg>
