<svg width="86" height="80" viewBox="0 0 86 80" fill="none" xmlns="http://www.w3.org/2000/svg">
<path d="M0 70.3448V60.6897H20.7586V80H0V70.3448ZM17.7931 70.3448V63.4483H2.96552V77.2414H17.7931V70.3448ZM5.93103 70.3448V66.2069H14.8276V74.4828H5.93103V70.3448ZM26.6897 78.6207V77.2414H23.7241V71.7241H26.6897V63.4483H29.6552V60.6897H23.7241V57.931H11.8621V55.1724H14.8276V52.4138H8.89655V57.931H5.93103V55.1724H0V52.4138H5.93103V46.8966H2.96552V49.6552H0V44.1379H5.93103V46.8966H8.89655V49.6552H11.8621V46.8966H14.8276V49.6552H20.7586V46.8966H17.7931V44.1379H8.89655V41.3793H17.7931V38.6207H8.89655V35.8621H5.93103V38.6207H0V30.3448H2.96552V33.1034H20.7586V30.3448H17.7931V27.5862H11.8621V30.3448H8.89655V27.5862H2.96552V22.069H8.89655V27.5862H11.8621V24.8276H17.7931V22.069H20.7586V24.8276H17.7931V27.5862H20.7586V30.3448H23.7241V24.8276H26.6897V22.069H23.7241V13.7931H29.6552V16.5517H32.6207V19.3103H29.6552V22.069H32.6207V38.6207H26.6897V35.8621H23.7241V38.6207H20.7586V41.3793H17.7931V44.1379H20.7586V46.8966H23.7241V49.6552H29.6552V46.8966H26.6897V44.1379H23.7241V41.3793H29.6552V46.8966H32.6207V41.3793H35.5862V46.8966H38.5517V38.6207H41.5172V35.8621H44.4828V38.6207H41.5172V41.3793H44.4828V44.1379H53.3793V41.3793H50.4138V38.6207H47.4483V33.1034H44.4828V30.3448H47.4483V27.5862H50.4138V24.8276H47.4483V22.069H44.4828V27.5862H41.5172V24.8276H38.5517V27.5862H35.5862V24.8276H38.5517V22.069H35.5862V13.7931H32.6207V11.0345H35.5862V13.7931H38.5517V2.75862H41.5172V8.27586H47.4483V5.51724H44.4828V0H50.4138V2.75862H47.4483V5.51724H53.3793V2.75862H56.3448V0H62.2759V8.27586H56.3448V5.51724H53.3793V11.0345H56.3448V19.3103H59.3103V16.5517H62.2759V30.3448H68.2069V27.5862H65.2414V22.069H71.1724V30.3448H77.1034V27.5862H74.1379V22.069H77.1034V27.5862H80.069V24.8276H86V30.3448H83.0345V27.5862H80.069V30.3448H77.1034V38.6207H80.069V41.3793H77.1034V44.1379H71.1724V46.8966H68.2069V49.6552H62.2759V46.8966H59.3103V44.1379H56.3448V49.6552H59.3103V52.4138H68.2069V55.1724H74.1379V52.4138H71.1724V49.6552H74.1379V46.8966H77.1034V49.6552H80.069V52.4138H83.0345V46.8966H80.069V44.1379H86V52.4138H83.0345V57.931H86V63.4483H83.0345V71.7241H86V74.4828H77.1034V80H68.2069V77.2414H74.1379V74.4828H68.2069V68.9655H65.2414V74.4828H62.2759V77.2414H65.2414V80H59.3103V71.7241H56.3448V77.2414H53.3793V74.4828H50.4138V63.4483H53.3793V71.7241H56.3448V63.4483H59.3103V57.931H56.3448V55.1724H53.3793V52.4138H56.3448V49.6552H53.3793V46.8966H50.4138V57.931H53.3793V60.6897H47.4483V66.2069H44.4828V71.7241H47.4483V74.4828H44.4828V77.2414H50.4138V80H44.4828V77.2414H41.5172V74.4828H38.5517V80H26.6897V78.6207ZM35.5862 74.4828V71.7241H38.5517V63.4483H32.6207V66.2069H35.5862V68.9655H29.6552V71.7241H26.6897V74.4828H29.6552V77.2414H35.5862V74.4828ZM77.1034 71.7241V68.9655H80.069V63.4483H83.0345V60.6897H80.069V52.4138H77.1034V60.6897H80.069V63.4483H77.1034V66.2069H74.1379V74.4828H77.1034V71.7241ZM62.2759 70.3448V68.9655H59.3103V71.7241H62.2759V70.3448ZM44.4828 64.8276V63.4483H41.5172V66.2069H44.4828V64.8276ZM71.1724 62.069V57.931H62.2759V66.2069H71.1724V62.069ZM65.2414 62.069V60.6897H68.2069V63.4483H65.2414V62.069ZM41.5172 59.3103V57.931H47.4483V55.1724H41.5172V52.4138H38.5517V55.1724H41.5172V57.931H35.5862V55.1724H32.6207V57.931H29.6552V55.1724H26.6897V52.4138H23.7241V49.6552H20.7586V52.4138H17.7931V55.1724H20.7586V52.4138H23.7241V55.1724H26.6897V57.931H29.6552V60.6897H41.5172V59.3103ZM32.6207 51.0345V49.6552H29.6552V52.4138H32.6207V51.0345ZM47.4483 49.6552V46.8966H41.5172V49.6552H44.4828V52.4138H47.4483V49.6552ZM65.2414 45.5172V44.1379H62.2759V46.8966H65.2414V45.5172ZM71.1724 42.7586V41.3793H74.1379V33.1034H71.1724V35.8621H68.2069V38.6207H65.2414V35.8621H59.3103V33.1034H56.3448V30.3448H59.3103V22.069H56.3448V19.3103H53.3793V16.5517H50.4138V19.3103H47.4483V11.0345H50.4138V13.7931H53.3793V11.0345H50.4138V8.27586H47.4483V11.0345H44.4828V19.3103H47.4483V22.069H50.4138V19.3103H53.3793V27.5862H50.4138V30.3448H47.4483V33.1034H50.4138V38.6207H53.3793V35.8621H59.3103V38.6207H62.2759V41.3793H68.2069V44.1379H71.1724V42.7586ZM68.2069 40V38.6207H71.1724V41.3793H68.2069V40ZM20.7586 37.2414V35.8621H23.7241V33.1034H20.7586V35.8621H17.7931V38.6207H20.7586V37.2414ZM29.6552 31.7241V30.3448H26.6897V33.1034H29.6552V31.7241ZM29.6552 17.931V16.5517H26.6897V19.3103H29.6552V17.931ZM41.5172 16.5517V13.7931H38.5517V19.3103H41.5172V16.5517ZM59.3103 4.13793V2.75862H56.3448V5.51724H59.3103V4.13793ZM83.0345 78.6207V77.2414H86V80H83.0345V78.6207ZM83.0345 38.6207V35.8621H80.069V33.1034H83.0345V35.8621H86V41.3793H83.0345V38.6207ZM0 9.65517V0H20.7586V19.3103H0V9.65517ZM17.7931 9.65517V2.75862H2.96552V16.5517H17.7931V9.65517ZM5.93103 9.65517V5.51724H14.8276V13.7931H5.93103V9.65517ZM65.2414 9.65517V0H86V19.3103H65.2414V9.65517ZM83.0345 9.65517V2.75862H68.2069V16.5517H83.0345V9.65517ZM71.1724 9.65517V5.51724H80.069V13.7931H71.1724V9.65517ZM23.7241 9.65517V8.27586H26.6897V11.0345H23.7241V9.65517ZM29.6552 6.89655V5.51724H26.6897V0H29.6552V2.75862H32.6207V0H35.5862V2.75862H32.6207V8.27586H29.6552V6.89655Z" fill="white"/>
</svg>
