<svg width="28" height="28" viewBox="0 0 28 28" fill="none" xmlns="http://www.w3.org/2000/svg">
<g clip-path="url(#clip0_2136_3882)">
<path d="M24.5 0H17.5C15.5703 0 14 1.57033 14 3.5V12.8333H21.2298L24.1033 14.749C24.5233 15.029 25.0075 15.1702 25.494 15.1702C25.8988 15.1702 26.3048 15.0722 26.6758 14.8738C27.4925 14.4363 28 13.5905 28 12.6642V3.5C28 1.57033 26.4297 0 24.5 0ZM25.6667 12.6642C25.6667 12.6898 25.6667 12.768 25.5757 12.8158C25.4835 12.8648 25.4193 12.8217 25.3983 12.8077L21.9368 10.5H16.3333V3.5C16.3333 2.85717 16.8572 2.33333 17.5 2.33333H24.5C25.1428 2.33333 25.6667 2.85717 25.6667 3.5V12.6642ZM3.02633 9.82217L0.1015 6.8985L1.75117 5.24883L3.5 6.99767V3.5C3.5 1.57033 5.07033 0 7 0H11.6667V2.33333H7C6.35717 2.33333 5.83333 2.85717 5.83333 3.5V7.007L7.58217 5.24767L9.23183 6.89733L6.30817 9.821C5.8555 10.2737 5.26167 10.4988 4.66783 10.4988C4.074 10.4988 3.479 10.2737 3.0275 9.821L3.02633 9.82217ZM24.9737 18.1767L27.8985 21.1015L26.2488 22.7512L24.5 21.0023V24.4988C24.5 26.4285 22.9297 27.9988 21 27.9988H16.3333V25.6655H21C21.6428 25.6655 22.1667 25.1417 22.1667 24.4988V20.9918L20.4178 22.7512L18.7682 21.1015L21.6918 18.1778C22.596 17.2737 24.0695 17.2737 24.9725 18.1778L24.9737 18.1767ZM10.5 12.8322H3.5C1.57033 12.8322 0 14.4025 0 16.3322V25.4963C0 26.4227 0.5075 27.2697 1.32417 27.706C1.69517 27.9043 2.10117 28.0023 2.506 28.0023C2.9925 28.0023 3.47667 27.8612 3.8955 27.5812L6.769 25.6655H13.9988V16.3333C13.9988 14.4037 12.4285 12.8333 10.4988 12.8333L10.5 12.8322ZM11.6667 23.3322H6.06317L2.6005 25.6398C2.5795 25.6538 2.51417 25.697 2.42433 25.648C2.33333 25.599 2.33333 25.522 2.33333 25.4963V16.3322C2.33333 15.6893 2.85717 15.1655 3.5 15.1655H10.5C11.1428 15.1655 11.6667 15.6893 11.6667 16.3322V23.3322Z" fill="#0A0A0A"/>
</g>
<defs>
<clipPath id="clip0_2136_3882">
<rect width="28" height="28" fill="white"/>
</clipPath>
</defs>
</svg>
