<svg width="26" height="15" viewBox="0 0 26 15" fill="none" xmlns="http://www.w3.org/2000/svg">
<path d="M2.75166 0.5H23.2483C23.6109 0.50152 23.9649 0.610521 24.2655 0.813219C24.5662 1.01592 24.8 1.30321 24.9373 1.63877C25.0747 1.97433 25.1095 2.34309 25.0373 2.69841C24.9651 3.05373 24.7891 3.37967 24.5317 3.635L14.3017 13.865C14.1312 14.0368 13.9285 14.1732 13.7051 14.2663C13.4816 14.3594 13.242 14.4073 13 14.4073C12.758 14.4073 12.5184 14.3594 12.2949 14.2663C12.0715 14.1732 11.8688 14.0368 11.6983 13.865L1.46833 3.635C1.21089 3.37967 1.03495 3.05373 0.962739 2.69841C0.890533 2.34309 0.92531 1.97433 1.06267 1.63877C1.20004 1.30321 1.43382 1.01592 1.73445 0.813219C2.03509 0.610521 2.38908 0.50152 2.75166 0.5Z" fill="#F5F5F5"/>
</svg>
