<svg width="40" height="40" viewBox="0 0 40 40" fill="none" xmlns="http://www.w3.org/2000/svg">
<path d="M27.4998 12.5C27.2654 12.2657 26.9475 12.134 26.616 12.134C26.2846 12.134 25.9667 12.2657 25.7323 12.5L19.9998 18.2325L14.2673 12.5C14.0329 12.2657 13.715 12.134 13.3835 12.134C13.0521 12.134 12.7342 12.2657 12.4998 12.5C12.2654 12.7344 12.1338 13.0523 12.1338 13.3838C12.1338 13.7152 12.2654 14.0331 12.4998 14.2675L18.2323 20L12.4998 25.7325C12.2654 25.9669 12.1338 26.2848 12.1338 26.6163C12.1338 26.9477 12.2654 27.2656 12.4998 27.5C12.7342 27.7344 13.0521 27.866 13.3835 27.866C13.715 27.866 14.0329 27.7344 14.2673 27.5L19.9998 21.7675L25.7323 27.5C25.9667 27.7344 26.2846 27.866 26.616 27.866C26.9475 27.866 27.2654 27.7344 27.4998 27.5C27.7341 27.2656 27.8658 26.9477 27.8658 26.6163C27.8658 26.2848 27.7341 25.9669 27.4998 25.7325L21.7673 20L27.4998 14.2675C27.7341 14.0331 27.8658 13.7152 27.8658 13.3838C27.8658 13.0523 27.7341 12.7344 27.4998 12.5Z" fill="#0A0A0A"/>
</svg>
