<svg width="20" height="20" viewBox="0 0 20 20" fill="none" xmlns="http://www.w3.org/2000/svg">
<g clip-path="url(#clip0_1115_1773)">
<path d="M15.8332 6.66667H16.9782C18.019 6.66667 18.974 5.95 19.139 4.92167C19.264 4.145 18.9498 3.44333 18.4157 2.995C18.6357 2.67333 18.7607 2.2825 18.749 1.86167C18.719 0.805 17.7732 0 16.7165 0H15.8332C15.3732 0 14.9998 0.373333 14.9998 0.833333V5.83333C14.9998 6.29333 15.3732 6.66667 15.8332 6.66667ZM16.3332 1.33333H16.8332C17.1548 1.33333 17.4165 1.595 17.4165 1.91667C17.4165 2.23833 17.1548 2.5 16.8332 2.5H16.3332V1.33333ZM16.3332 3.83333H17.0832C17.4965 3.83333 17.8332 4.17 17.8332 4.58333C17.8332 4.99667 17.4965 5.33333 17.0832 5.33333H16.3332V3.83333ZM1.48149 9.16583C1.78566 9.16583 2.04816 8.95417 2.11399 8.6575L2.25983 7.99917H4.24233L4.37649 8.63667C4.44149 8.945 4.71316 9.165 5.02816 9.165C5.45066 9.165 5.76649 8.77583 5.67983 8.3625L4.73233 3.855C4.61983 3.29833 4.29649 2.84417 3.86983 2.63917C3.67649 2.54583 3.47316 2.49917 3.27149 2.49917C3.03649 2.49917 2.80399 2.56167 2.59149 2.68667C2.19899 2.9175 1.91733 3.33333 1.81983 3.81667L0.848993 8.3825C0.76316 8.78583 1.07066 9.165 1.48233 9.165L1.48149 9.16583ZM3.12649 4.08C3.15149 3.95583 3.21399 3.86917 3.27316 3.83333L3.28733 3.83833C3.30733 3.85167 3.38816 3.93667 3.42733 4.12917L3.96149 6.66583H2.55483L3.12649 4.08ZM19.0182 7.93L0.683993 11.2633C0.23066 11.3458 -0.0693404 11.78 0.0131596 12.2325C0.0856596 12.635 0.436493 12.9167 0.831493 12.9167C0.881493 12.9167 8.88816 11.4658 8.88816 11.4658L6.75316 17.4383C6.56233 18.095 6.68316 18.7992 7.07649 19.3225C7.40066 19.7542 7.87566 20.0008 8.38066 20.0008H11.6165C12.1215 20.0008 12.5973 19.7542 12.9207 19.3225C13.314 18.8 13.4348 18.095 13.2282 17.39L10.974 11.0875L19.314 9.57083C19.7673 9.48833 20.0673 9.05417 19.9848 8.60167C19.9032 8.14917 19.4698 7.8525 19.0165 7.93083L19.0182 7.93Z" fill="white"/>
</g>
<defs>
<clipPath id="clip0_1115_1773">
<rect width="20" height="20" fill="white"/>
</clipPath>
</defs>
</svg>
