<svg width="28" height="28" viewBox="0 0 28 28" fill="none" xmlns="http://www.w3.org/2000/svg">
<g clip-path="url(#clip0_1932_2703)">
<path d="M19.25 18.0833C19.25 16.4745 20.5578 15.1667 22.1667 15.1667C23.7755 15.1667 25.0833 16.4745 25.0833 18.0833C25.0833 19.6922 23.7755 21 22.1667 21C20.5578 21 19.25 19.6922 19.25 18.0833ZM24.5 22.1667H19.8333C17.9037 22.1667 16.3333 23.737 16.3333 25.6667V28H18.6667V25.6667C18.6667 25.0238 19.1893 24.5 19.8333 24.5H24.5C25.144 24.5 25.6667 25.0238 25.6667 25.6667V28H28V25.6667C28 23.737 26.4297 22.1667 24.5 22.1667ZM25.3167 0H2.68217L0.0291667 11.5395L0 12.8777C0 14.0397 0.449167 15.0897 1.16667 15.9017V24.4988C1.16667 26.4285 2.737 27.9988 4.66667 27.9988H14V25.6655H4.66667C4.02383 25.6655 3.5 25.1417 3.5 24.4988V17.3343C3.87567 17.4312 4.26183 17.4988 4.66667 17.4988H5.83333C7.22633 17.4988 8.463 16.8595 9.31117 15.8725C10.1593 16.8607 11.3948 17.4988 12.789 17.4988H15.2122C15.8515 17.4988 16.4593 17.367 17.0135 17.129C17.311 15.5097 18.3563 14.1668 19.7738 13.4342C19.7995 13.2347 19.8345 13.0375 19.8345 12.831H17.5012C17.5012 14.14 16.4967 15.1643 15.2122 15.1643H12.789C11.5057 15.1643 10.5012 14.14 10.5012 12.831H8.12233C8.12233 14.14 7.11783 15.1643 5.8345 15.1643H4.66783C3.35883 15.1643 2.3345 14.1598 2.3345 12.8765V11.9315L4.54067 2.33333H8.16667V7H10.5V2.33333H17.5V7H19.8333V2.33333H23.4593L25.6667 11.9338V12.8788C25.6667 13.2767 25.5593 13.6407 25.3843 13.9638C26.0213 14.462 26.5393 15.0967 26.8917 15.834C27.573 15.0302 28 14.0082 28 12.8788V11.802L25.3167 0Z" fill="#0A0A0A"/>
</g>
<defs>
<clipPath id="clip0_1932_2703">
<rect width="28" height="28" fill="white"/>
</clipPath>
</defs>
</svg>
