<svg width="72" height="40" viewBox="0 0 72 40" fill="none" xmlns="http://www.w3.org/2000/svg">
<path fill-rule="evenodd" clip-rule="evenodd" d="M42.1463 0.206305C43.4487 1.25549 44.6303 2.88903 44.9826 4.12715C45.5619 6.16321 44.0184 8.05612 41.7757 8.05995C41.1904 8.06092 41.0799 8.034 40.5519 7.7617C40.058 7.50697 39.8868 7.35789 39.4026 6.76035C38.7329 5.9341 38.1808 5.5128 37.4305 5.2553C36.9621 5.09451 36.7249 5.06799 35.7547 5.06824C34.1847 5.06856 33.1327 5.33517 31.3507 6.18411C29.3681 7.1287 29.2411 7.17197 28.3497 7.20702L27.5313 7.23923L26.0677 6.74164C23.9533 6.02267 22.9696 5.81714 21.1396 5.71198C19.5733 5.62195 17.3014 5.91409 16.2072 6.34612L15.7613 6.52221L16.073 6.59069C20.3188 7.52373 23.0898 8.8304 25.0034 10.8019C26.7887 12.6413 27.5766 14.6798 27.4727 17.1902L27.4308 18.2041L33.7557 18.1832L40.0807 18.1624L40.1039 17.9184C40.1767 17.1532 40.6733 15.9724 41.2453 15.2048C42.075 14.0914 42.7446 13.5516 45.8488 11.4948C49.0454 9.37679 49.6132 8.86684 49.86 7.89208C50.1224 6.85615 49.2161 5.13574 47.4513 3.31936C46.0749 1.90289 44.3632 0.772049 42.7764 0.230948C41.8911 -0.070874 41.7977 -0.0745334 42.1463 0.206305ZM41.094 3.47357C40.4114 3.80337 40.0322 4.59245 40.2074 5.3185C40.3296 5.82511 40.7401 6.2874 41.2131 6.45137C41.6971 6.61915 42.0883 6.56108 42.5551 6.25219C43.0068 5.95321 43.1991 5.54549 43.1972 4.88988C43.1959 4.46435 43.1596 4.33227 42.9623 4.03589C42.5306 3.38768 41.755 3.15426 41.094 3.47357ZM30.3373 10.7628C30.7661 10.8277 32.1866 10.9921 33.4942 11.1281C34.8018 11.264 36.8416 11.4871 38.0271 11.6239L40.1827 11.8725L40.5214 11.491C40.7077 11.2812 40.8702 11.0822 40.8824 11.0488C40.9333 10.9098 37.0763 10.7326 32.9486 10.6844C29.7647 10.6472 29.6054 10.652 30.3373 10.7628ZM19.6196 11.0097C18.7494 11.2047 17.8701 11.7171 17.1979 12.4209C16.1877 13.4785 15.7415 14.538 15.6706 16.0478C15.6174 17.1776 15.7562 17.9104 16.2018 18.8537C16.6439 19.7895 17.5938 20.7903 18.4504 21.2229C21.3812 22.7028 24.8291 21.2043 25.8661 17.9998C26.0274 17.5009 26.0496 17.2844 26.0454 16.2511C26.0411 15.182 26.021 15.0153 25.8308 14.467C25.0877 12.3249 23.0268 10.8672 20.7735 10.8896C20.4175 10.8932 19.8983 10.9472 19.6196 11.0097ZM47.3793 11.6155C46.7206 12.0173 45.9226 12.4953 45.606 12.6776C45.2894 12.8601 45.0303 13.0275 45.0303 13.0499C45.0303 13.0865 45.599 13.9163 46.2481 14.8268C46.4883 15.1635 46.4896 15.1709 46.3492 15.3639C45.8137 16.1005 46.1154 17.3799 46.9206 17.7866C47.5971 18.1283 48.5567 17.9333 48.9365 17.3769C49.4315 16.6514 49.3824 15.7454 48.8161 15.1544C48.6293 14.9595 48.3362 14.7576 48.142 14.6901C47.8488 14.5881 47.7312 14.4721 47.3421 13.9005C47.0912 13.5321 46.9097 13.2056 46.9389 13.1752C46.9681 13.1447 47.3486 13.1198 47.7844 13.1198C48.4823 13.1198 48.6305 13.146 49.0254 13.3391C50.0734 13.8516 50.7779 14.9012 50.8543 16.064C50.9485 17.499 50.2857 18.6617 49.0152 19.2898C48.5437 19.523 48.4316 19.5451 47.7195 19.5451C47.0051 19.5451 46.8963 19.5234 46.416 19.286C45.686 18.9252 45.1896 18.4162 44.8765 17.7075C44.4301 16.6968 44.4733 15.6718 44.9966 14.8604L45.2562 14.4578L44.8954 13.9108C44.697 13.6099 44.5236 13.3489 44.5102 13.3306C44.4968 13.3123 44.0855 13.5755 43.5962 13.9155L42.7064 14.5338L42.5823 15.1035C42.4054 15.9151 42.4203 17.1285 42.6162 17.8663C43.2506 20.2551 45.2216 21.7817 47.6713 21.7817C48.8859 21.7817 49.8346 21.4886 50.7732 20.8236C52.9868 19.2551 53.6645 15.8933 52.2655 13.4214C51.9269 12.8233 51.113 11.9709 50.5248 11.5984C50.0611 11.3048 48.9934 10.8824 48.7191 10.8841C48.6409 10.8845 48.038 11.2137 47.3793 11.6155ZM20.0483 13.1885C19.4636 13.3908 19.1006 13.6375 18.665 14.1284C18.151 14.7076 17.8952 15.3213 17.8453 16.0945C17.7575 17.4559 18.4344 18.6895 19.5831 19.2616C20.4334 19.685 21.4625 19.6631 22.2795 19.2042C22.7279 18.9523 23.3291 18.3422 23.5267 17.9388L23.6761 17.6338H22.2299C20.6754 17.6338 20.4215 17.5832 20.0545 17.2003C19.4286 16.5472 19.788 15.2971 20.6756 15.04C20.845 14.9909 21.5713 14.9505 22.2893 14.9503C23.0216 14.95 23.5949 14.9173 23.5949 14.8758C23.5949 14.835 23.4595 14.623 23.2941 14.4046C22.6253 13.5218 21.952 13.1431 20.9837 13.105C20.6105 13.0904 20.235 13.1239 20.0483 13.1885ZM30.1441 13.1873C30.2048 13.2537 32.2095 13.5042 37.4564 14.1011C38.1262 14.1772 38.6773 14.206 38.7102 14.1664C38.7425 14.1276 38.8617 13.9259 38.975 13.7182L39.1811 13.3406L38.8904 13.289C38.5272 13.2246 30.0885 13.1264 30.1441 13.1873ZM30.4543 15.7631C30.4543 15.8079 30.5097 15.8445 30.5774 15.8445C30.6452 15.8445 31.4607 15.9347 32.3897 16.0449C34.72 16.3213 36.2739 16.4829 37.2137 16.5466C38.1034 16.6069 38.0635 16.631 38.2063 15.9461L38.2614 15.6818H34.3578C31.8074 15.6818 30.4543 15.71 30.4543 15.7631ZM1.26655 26.2328C0.826075 28.681 0.0459038 32.888 0.00685234 33.0258C-0.0301725 33.1564 0.052997 33.1681 1.01517 33.1681H2.0638L2.5109 30.7688C2.7569 29.4492 2.98084 28.3696 3.00867 28.3696C3.0365 28.3696 3.26496 29.4492 3.51634 30.7688L3.97342 33.1681L4.41109 33.1676L4.84868 33.1672L5.91414 31.2767C6.50007 30.2369 7.12474 29.13 7.30214 28.8169C7.54027 28.3966 7.61323 28.3114 7.58096 28.4916C7.55695 28.6257 7.3797 29.6322 7.18709 30.7282C6.99449 31.8241 6.81646 32.8214 6.79143 32.9445L6.74599 33.1681H7.96041C8.62826 33.1681 9.17474 33.1497 9.17474 33.1273C9.17474 33.1049 9.33095 32.2357 9.52192 31.1957C10.1746 27.6419 10.5778 25.3488 10.5778 25.1918C10.5778 25.0428 10.5087 25.035 9.1883 25.035H7.7989L6.52314 27.2309C5.82146 28.4387 5.2261 29.4269 5.20015 29.4269C5.16242 29.4269 4.7214 27.3187 4.35785 25.4009L4.2962 25.0756L2.88949 25.0535L1.4827 25.0314L1.26655 26.2328ZM13.3449 25.1112C12.335 25.3689 11.8313 26.0929 11.5503 27.6907C11.4807 28.0864 11.3009 29.0873 11.1507 29.9149C10.7758 31.9809 10.8506 32.4755 11.6068 32.9272C11.9364 33.1242 11.9759 33.1279 14.0347 33.1537C16.4459 33.1841 16.9866 33.1205 17.6061 32.7343C18.1386 32.4023 18.4587 31.8593 18.6303 30.9971C18.941 29.4358 19.3082 27.3466 19.3542 26.877C19.4402 26.0013 19.0288 25.3451 18.2556 25.1247C17.905 25.0248 13.7286 25.0134 13.3449 25.1112ZM20.4442 25.1366C20.4036 25.2841 20.2432 26.2979 20.2432 26.4066C20.2432 26.4714 20.5998 26.4989 21.4416 26.4989H22.6398L22.4908 27.3732C22.4087 27.8542 22.1501 29.2884 21.916 30.5604C21.6819 31.8324 21.4904 32.9405 21.4904 33.0227C21.4904 33.1624 21.5703 33.1708 22.712 33.1498L23.9335 33.1275L24.0272 32.6801C24.0787 32.4341 24.3612 30.9427 24.6547 29.3659L25.1885 26.4989H26.3779C27.5484 26.4989 27.5678 26.496 27.6041 26.3159C27.7249 25.7163 27.8041 25.2558 27.8041 25.153C27.8041 25.0515 27.2895 25.035 24.1381 25.035C21.2722 25.035 20.4661 25.0572 20.4442 25.1366ZM29.7662 25.1899C29.277 25.3662 28.8028 25.8136 28.5423 26.3447C28.3683 26.6994 27.941 28.7664 27.6094 30.8571C27.4207 32.0471 27.5864 32.5494 28.2986 32.9467C28.613 33.1222 28.6924 33.1275 30.9999 33.1275C33.6592 33.1275 33.893 33.0882 34.5096 32.5374C35.0099 32.0906 35.1637 31.6287 35.5993 29.2642C36.1171 26.4539 36.1152 25.9818 35.5845 25.4647C35.1848 25.0753 34.8877 25.0348 32.4516 25.0376C30.454 25.0399 30.1316 25.0582 29.7662 25.1899ZM39.0674 25.1106C37.9157 25.4013 37.2357 26.5002 37.2357 28.0706C37.2357 29.2012 37.6418 29.5367 39.4756 29.9212C41.1023 30.2622 41.5085 30.3907 41.5669 30.5827C41.6546 30.8711 41.5263 31.2799 41.2802 31.4959L41.0431 31.7042H38.8276C37.609 31.7042 36.6118 31.7316 36.6115 31.7652C36.6103 31.8876 36.4491 32.8876 36.4073 33.0312C36.3663 33.1725 36.4905 33.1778 39.2359 33.1516C41.9217 33.126 42.1317 33.1134 42.4842 32.9576C42.9908 32.7338 43.3482 32.4237 43.5844 32.003C43.8449 31.5393 44.041 30.5195 44.0033 29.824C43.9772 29.343 43.9426 29.236 43.7418 29.0155C43.3267 28.5596 43.0494 28.4566 41.2499 28.0895C40.0911 27.8532 39.8586 27.723 39.823 27.2902C39.8043 27.0617 39.8489 26.9417 40.0315 26.7289L40.2639 26.4583L42.3659 26.464L44.4679 26.4696L44.5622 25.8592C44.6141 25.5234 44.6743 25.2006 44.696 25.1418C44.728 25.0547 44.2332 25.0365 42.0182 25.0432C40.5239 25.0479 39.196 25.0781 39.0674 25.1106ZM46.2846 25.4619C46.2395 25.6968 45.9727 27.1882 45.6917 28.7762C45.4106 30.3642 45.1164 32.0021 45.0381 32.4158L44.8955 33.1681H46.1572H47.419L47.5921 32.1311C47.6873 31.5608 47.8251 30.8068 47.8983 30.4556L48.0313 29.8172L49.3145 29.829C50.0201 29.8355 50.6101 29.8539 50.6254 29.8699C50.6609 29.9068 50.1142 32.9919 50.0543 33.0929C50.0277 33.1378 50.5272 33.1681 51.2943 33.1681H52.5788L52.6225 32.9445C52.6465 32.8214 52.9661 31.0465 53.3326 29.0001C53.6991 26.9538 54.0192 25.2245 54.0439 25.1572C54.0828 25.0515 53.9144 25.035 52.7944 25.035C51.6128 25.035 51.5001 25.0474 51.5019 25.1773C51.503 25.2555 51.3905 25.9692 51.2519 26.7633L51.0001 28.2069H49.6632H48.3264L48.5085 27.2106C48.6086 26.6626 48.7384 25.9489 48.7971 25.6246L48.9036 25.035H47.6351H46.3665L46.2846 25.4619ZM56.7965 25.1435C56.1011 25.3435 55.5659 25.8448 55.274 26.5697C55.2133 26.7205 55.0001 27.7269 54.8001 28.8063C54.2353 31.8572 54.2834 32.4686 55.1245 32.9206C55.5049 33.125 55.5347 33.1278 57.6274 33.1536C58.8987 33.1692 59.9238 33.1452 60.1916 33.0935C61.1094 32.9166 61.7193 32.4098 62.0184 31.5756C62.1965 31.079 62.9582 26.9826 62.9582 26.5214C62.9582 26.0326 62.6669 25.5168 62.2566 25.2789C61.906 25.0757 61.9047 25.0756 59.5285 25.0586C57.8183 25.0463 57.0516 25.0702 56.7965 25.1435ZM64.712 25.3764C64.6823 25.5688 64.5056 26.5498 64.3193 27.5562C64.1331 28.5627 63.8363 30.1914 63.6598 31.1755C63.4832 32.1596 63.3243 33.0106 63.3068 33.0665C63.2821 33.1451 63.5705 33.1681 64.5784 33.1681H65.8821L66.1064 31.8743C66.2298 31.1626 66.3527 30.5436 66.3794 30.4984C66.409 30.4484 67.1418 30.4054 68.2592 30.3883C69.9735 30.362 70.1159 30.3482 70.4903 30.1723C70.9473 29.9577 71.2158 29.6901 71.4428 29.2235C71.6274 28.8438 72 26.921 72 26.3477C72 25.8557 71.7658 25.4652 71.3347 25.2383C71.0435 25.0851 70.8446 25.0742 67.8959 25.0511L64.766 25.0265L64.712 25.3764ZM14.8259 26.4762C14.4452 26.5344 14.2598 26.786 14.1267 27.4252C13.9183 28.4259 13.4618 31.0037 13.4618 31.1796C13.4618 31.2724 13.5334 31.4283 13.6208 31.5261C13.7664 31.6894 13.8543 31.7042 14.6769 31.7042C15.7534 31.7042 15.99 31.6131 16.1043 31.1546C16.2539 30.5547 16.8135 27.3091 16.8135 27.0413C16.8135 26.5966 16.631 26.4939 15.7894 26.4653C15.3881 26.4517 14.9545 26.4565 14.8259 26.4762ZM31.4521 26.4894C31.1199 26.563 30.932 26.7047 30.8432 26.9484C30.7343 27.2475 30.1235 30.7549 30.1224 31.0885C30.1205 31.6153 30.2987 31.7042 31.3581 31.7042C32.2153 31.7042 32.2524 31.6968 32.4833 31.4805C32.7122 31.266 32.7362 31.1772 33.0691 29.3195C33.4603 27.1363 33.483 26.8311 33.2687 26.6288C33.0995 26.469 31.9441 26.3803 31.4521 26.4894ZM58.3983 26.4654C58.3125 26.4873 58.1609 26.5235 58.0613 26.5458C57.8334 26.5968 57.6317 27.0656 57.5041 27.8409C57.4526 28.154 57.3082 28.9673 57.1834 29.6483C56.8079 31.6953 56.812 31.7042 58.1377 31.7042C59.0606 31.7042 59.3065 31.641 59.4839 31.3585C59.6115 31.1553 59.8065 30.2463 60.1161 28.4123C60.433 26.535 60.4198 26.504 59.2821 26.4561C58.8817 26.4393 58.484 26.4435 58.3983 26.4654ZM67.1338 26.4896C67.0784 26.5831 66.6996 28.6245 66.6996 28.8294C66.6996 28.9922 68.4944 28.984 68.7986 28.8199C69.0524 28.6829 69.086 28.6092 69.2379 27.8559C69.3835 27.1347 69.3807 26.7083 69.2298 26.5776C69.0666 26.4363 67.2116 26.3584 67.1338 26.4896ZM21.6852 37.3338C21.3423 38.0117 20.8951 38.8711 20.6914 39.2435C20.4877 39.6159 20.3212 39.9385 20.3212 39.9603C20.3212 39.9821 20.5597 40 20.8513 40H21.3813L21.5518 39.634L21.7222 39.268H22.4589H23.1956L23.2482 39.634L23.3008 40H23.8352C24.2275 40 24.3612 39.973 24.338 39.8983C24.3207 39.8425 24.1428 39.0098 23.9428 38.048C23.7428 37.0863 23.5662 36.2537 23.5505 36.1977C23.5307 36.1274 23.3351 36.0969 22.9153 36.0986L22.3088 36.1011L21.6852 37.3338ZM25.9767 36.2791C25.956 36.3797 25.8131 37.1758 25.6591 38.048C25.5052 38.9203 25.3597 39.7164 25.336 39.817C25.2946 39.9926 25.3134 40 25.7983 40H26.3037L26.44 39.268L26.5762 38.536H26.8245C27.1966 38.536 27.3192 38.6792 27.5211 39.3493L27.7049 39.9593L28.2612 39.9832C28.5671 39.9963 28.8174 39.9915 28.8174 39.9726C28.8174 39.8965 28.4205 38.8102 28.3384 38.6617C28.2757 38.5482 28.2748 38.4943 28.3354 38.4732C28.5165 38.4102 28.9269 38.079 29.065 37.8842C29.2797 37.5816 29.3346 36.9199 29.1722 36.5922C28.9621 36.1684 28.6839 36.0961 27.2624 36.0961C26.0312 36.0961 26.0138 36.0985 25.9767 36.2791ZM30.3517 37.8245C30.1882 38.775 30.035 39.6533 30.0114 39.7763L29.9684 40H30.4476C30.7633 40 30.937 39.9653 30.9565 39.8983C30.9728 39.8425 31.0621 39.3392 31.1549 38.78C31.2476 38.2209 31.3536 37.6902 31.3903 37.6007L31.4571 37.438L31.4606 37.6007C31.4625 37.6902 31.5584 38.2667 31.6736 38.8817L31.8831 40H32.2089H32.5348L33.2186 38.6948C33.5947 37.977 33.9108 37.4005 33.921 37.4138C33.9312 37.4272 33.8406 37.9504 33.7195 38.5767C33.5985 39.2029 33.4982 39.7794 33.4968 39.8577C33.4946 39.9785 33.5686 40 33.9874 40H34.4805L34.5725 39.4917C34.6231 39.2121 34.7817 38.3338 34.925 37.5397L35.1854 36.0961L34.4762 36.0974L33.767 36.0987L33.1434 37.2667C32.8005 37.909 32.4995 38.3934 32.4747 38.343C32.4498 38.2926 32.3308 37.7665 32.2103 37.1737L31.9912 36.0961L31.3202 36.0962L30.6491 36.0963L30.3517 37.8245ZM36.4192 36.2791C36.3971 36.3797 36.2559 37.1575 36.1052 38.0074C35.9544 38.8573 35.8112 39.6533 35.7867 39.7763L35.7423 40H37.2295C38.4394 40 38.7166 39.9792 38.7166 39.8882C38.7166 39.8267 38.7385 39.662 38.7654 39.5222L38.8141 39.268H37.869C36.8193 39.268 36.8747 39.3045 36.9739 38.6784L37.0222 38.3734H37.8987H38.7751L38.8238 38.1192C38.9181 37.6276 38.9405 37.6414 38.0506 37.6414H37.2286L37.2772 37.3364C37.3039 37.1687 37.3395 36.9857 37.3562 36.9297C37.3784 36.8558 37.6421 36.8281 38.323 36.8281H39.2593L39.307 36.6044C39.3332 36.4813 39.3713 36.3166 39.3917 36.2384C39.426 36.1065 39.3201 36.0961 37.9439 36.0961C36.468 36.0961 36.4589 36.0971 36.4192 36.2791ZM40.5874 36.255C40.5874 36.3423 40.4471 37.1814 40.2756 38.1194C40.1041 39.0574 39.9638 39.866 39.9638 39.9164C39.9638 39.9767 40.1274 39.9995 40.4463 39.9836L40.9287 39.9593L41.1075 38.9427C41.3845 37.3674 41.3329 37.4158 41.7097 38.3782C41.8926 38.8453 42.1163 39.4012 42.2068 39.6137L42.3714 40H42.9199C43.4247 40 43.4717 39.9854 43.5093 39.817C43.5774 39.5118 44.1729 36.2317 44.1729 36.1615C44.1729 36.0498 43.2369 36.0845 43.1959 36.1977C43.1758 36.2537 43.0755 36.8118 42.9732 37.438C42.8443 38.2275 42.7685 38.5268 42.7258 38.414C42.6921 38.3246 42.5105 37.8671 42.3223 37.3974C42.1342 36.9277 41.944 36.4428 41.8998 36.3197C41.8213 36.1017 41.8038 36.0961 41.2033 36.0961C40.6442 36.0961 40.5874 36.1107 40.5874 36.255ZM45.5382 36.1977C45.503 36.306 44.8745 39.8569 44.8745 39.9468C44.8745 39.9761 45.0981 40 45.3714 40H45.8683L45.9213 39.7357C45.9504 39.5902 46.0937 38.8064 46.2397 37.9936C46.3858 37.1809 46.5279 36.4214 46.5557 36.306C46.6062 36.0961 46.6061 36.0961 46.0886 36.0961C45.7441 36.0961 45.5601 36.1301 45.5382 36.1977ZM48.5709 36.8406C48.3738 37.25 47.935 38.108 47.5958 38.7472C47.2566 39.3864 46.979 39.9297 46.979 39.9547C46.979 39.9796 47.2 40 47.4702 40H47.9612L48.133 39.6311L48.3048 39.2622L49.0622 39.2854L49.8195 39.3087L49.8848 39.6543L49.9502 40H50.4996C50.991 40 51.0433 39.985 50.9959 39.8577C50.9444 39.7198 50.1749 36.238 50.1749 36.1432C50.1749 36.1172 49.8946 36.0961 49.5521 36.0961H48.9293L48.5709 36.8406ZM26.836 37.1737C26.807 37.3638 26.7626 37.606 26.7374 37.7118C26.6915 37.9035 26.6938 37.9042 27.2853 37.873C27.9402 37.8384 28.0827 37.753 28.1603 37.3486C28.2357 36.9555 28.054 36.8281 27.4187 36.8281H26.8887L26.836 37.1737ZM22.4004 37.7837L22.0344 38.536H22.5487H23.063L23.0134 38.231C22.9861 38.0633 22.9194 37.7247 22.865 37.4787L22.7664 37.0314L22.4004 37.7837ZM49.3445 37.1631C49.2508 37.2841 48.6939 38.4228 48.6939 38.4933C48.6939 38.5168 48.9219 38.536 49.2005 38.536C49.4792 38.536 49.7055 38.5086 49.7036 38.475C49.7016 38.4414 49.6396 38.1073 49.5658 37.7324C49.4618 37.2046 49.4118 37.0761 49.3445 37.1631Z" fill="white"/>
</svg>
