<svg width="14" height="14" viewBox="0 0 14 14" fill="none" xmlns="http://www.w3.org/2000/svg">
<g clip-path="url(#clip0_1444_3287)">
<path d="M13.7439 12.5098L11.0342 9.79902C13.0617 7.08957 12.5089 3.24949 9.79945 1.22198C7.08999 -0.805522 3.24991 -0.252688 1.22241 2.45676C-0.805094 5.16622 -0.25226 9.0063 2.45719 11.0338C4.63365 12.6625 7.62296 12.6625 9.79945 11.0338L12.5103 13.7446C12.8509 14.0853 13.4032 14.0853 13.7439 13.7446C14.0845 13.404 14.0845 12.8516 13.7439 12.511L13.7439 12.5098ZM6.15091 10.5106C3.74288 10.5106 1.7908 8.55851 1.7908 6.15048C1.7908 3.74245 3.74288 1.79038 6.15091 1.79038C8.55894 1.79038 10.511 3.74245 10.511 6.15048C10.5085 8.55742 8.55788 10.508 6.15091 10.5106Z" fill="#F5F5F5"/>
</g>
<defs>
<clipPath id="clip0_1444_3287">
<rect width="14" height="14" fill="white"/>
</clipPath>
</defs>
</svg>
