<svg width="36" height="36" viewBox="0 0 36 36" fill="none" xmlns="http://www.w3.org/2000/svg">
<rect width="36" height="36" rx="18" fill="#F5F5F5"/>
<g clip-path="url(#clip0_868_13369)">
<path d="M25.5 28.0001H23V23.8334C23 23.3914 22.8244 22.9674 22.5118 22.6549C22.1993 22.3423 21.7754 22.1667 21.3333 22.1667H14.6667C14.2246 22.1667 13.8007 22.3423 13.4882 22.6549C13.1756 22.9674 13 23.3914 13 23.8334V28.0001H10.5V23.8334C10.5013 22.7287 10.9407 21.6697 11.7218 20.8886C12.503 20.1075 13.562 19.668 14.6667 19.6667H21.3333C22.438 19.668 23.497 20.1075 24.2782 20.8886C25.0593 21.6697 25.4987 22.7287 25.5 23.8334V28.0001Z" fill="#0A0A0A"/>
<path d="M18 18C17.0111 18 16.0444 17.7068 15.2221 17.1574C14.3999 16.6079 13.759 15.8271 13.3806 14.9134C13.0022 13.9998 12.9031 12.9945 13.0961 12.0246C13.289 11.0546 13.7652 10.1637 14.4645 9.46447C15.1637 8.76521 16.0546 8.289 17.0245 8.09608C17.9945 7.90315 18.9998 8.00217 19.9134 8.3806C20.827 8.75904 21.6079 9.39991 22.1573 10.2222C22.7068 11.0444 23 12.0111 23 13C22.9987 14.3257 22.4715 15.5967 21.5341 16.5341C20.5967 17.4715 19.3257 17.9987 18 18ZM18 10.5C17.5055 10.5 17.0222 10.6466 16.6111 10.9213C16.2 11.196 15.8795 11.5865 15.6903 12.0433C15.5011 12.5001 15.4516 13.0028 15.548 13.4877C15.6445 13.9727 15.8826 14.4181 16.2322 14.7678C16.5819 15.1174 17.0273 15.3555 17.5123 15.452C17.9972 15.5484 18.4999 15.4989 18.9567 15.3097C19.4135 15.1205 19.804 14.8001 20.0787 14.3889C20.3534 13.9778 20.5 13.4945 20.5 13C20.5 12.337 20.2366 11.7011 19.7678 11.2322C19.2989 10.7634 18.663 10.5 18 10.5Z" fill="#0A0A0A"/>
</g>
<defs>
<clipPath id="clip0_868_13369">
<rect width="20" height="20" fill="white" transform="translate(8 8)"/>
</clipPath>
</defs>
</svg>
