<svg width="20" height="20" viewBox="0 0 20 20" fill="none" xmlns="http://www.w3.org/2000/svg">
<g clip-path="url(#clip0_1115_791)">
<path d="M9.99989 19.552L9.27822 19.042C8.32822 18.3703 -0.000112874 12.3195 -0.000112874 6.79199C-0.053996 5.24324 0.507444 3.73613 1.56148 2.60011C2.61553 1.46409 4.07644 0.791547 5.62489 0.729492C6.4796 0.737892 7.32048 0.946296 8.0802 1.33802C8.83991 1.72974 9.49735 2.2939 9.99989 2.98533C10.5024 2.2939 11.1599 1.72974 11.9196 1.33802C12.6793 0.946296 13.5202 0.737892 14.3749 0.729492C15.9233 0.791547 17.3843 1.46409 18.4383 2.60011C19.4923 3.73613 20.0538 5.24324 19.9999 6.79199C19.9999 12.3195 11.6716 18.3703 10.7216 19.042L9.99989 19.552ZM5.62489 3.22949C4.73986 3.2922 3.91529 3.70148 3.33021 4.36848C2.74512 5.03547 2.44676 5.90634 2.49989 6.79199C2.49989 10.0553 7.38572 14.467 9.99989 16.4678C12.6141 14.4678 17.4999 10.0553 17.4999 6.79199C17.553 5.90634 17.2547 5.03547 16.6696 4.36848C16.0845 3.70148 15.2599 3.2922 14.3749 3.22949C13.4899 3.2922 12.6653 3.70148 12.0802 4.36848C11.4951 5.03547 11.1968 5.90634 11.2499 6.79199H8.74989C8.80302 5.90634 8.50465 5.03547 7.91957 4.36848C7.33449 3.70148 6.50992 3.2922 5.62489 3.22949Z" fill="white"/>
</g>
<defs>
<clipPath id="clip0_1115_791">
<rect width="20" height="20" fill="white"/>
</clipPath>
</defs>
</svg>
